<?xml version="1.0" encoding="utf-8"?>
<!-- Generator: Adobe Illustrator 18.0.0, SVG Export Plug-In . SVG Version: 6.00 Build 0)  -->
<!DOCTYPE svg PUBLIC "-//W3C//DTD SVG 1.1//EN" "http://www.w3.org/Graphics/SVG/1.1/DTD/svg11.dtd">
<svg version="1.1" id="Layer_1" xmlns="http://www.w3.org/2000/svg" xmlns:xlink="http://www.w3.org/1999/xlink" x="0px" y="0px"
	 width="288px" height="216px" viewBox="0 0 288 216" enable-background="new 0 0 288 216" xml:space="preserve">
<g>
	<path fill="none" stroke="#3853A3" stroke-width="0.7087" stroke-miterlimit="10" d="M256.8,184.5H31.2c-4.7,0-8.5-3.8-8.5-8.5V40
		c0-4.7,3.8-8.5,8.5-8.5h225.6c4.7,0,8.5,3.8,8.5,8.5v136C265.3,180.7,261.5,184.5,256.8,184.5z"/>
	<path fill="none" stroke="#3853A3" stroke-width="0.7087" stroke-miterlimit="10" d="M135.6,173.9"/>
	<path fill="none" stroke="#3853A3" stroke-width="0.7087" stroke-miterlimit="10" d="M128.6,166.6"/>
	<line fill="none" stroke="#EC1E24" stroke-width="0.7087" stroke-miterlimit="10" x1="25.5" y1="179.9" x2="25.5" y2="182.3"/>
	<line fill="none" stroke="#EC1E24" stroke-width="0.7087" stroke-miterlimit="10" x1="28.3" y1="179.9" x2="28.3" y2="184"/>
	<line fill="none" stroke="#EC1E24" stroke-width="0.7087" stroke-miterlimit="10" x1="31.2" y1="179.9" x2="31.2" y2="184.5"/>
	<line fill="none" stroke="#EC1E24" stroke-width="0.7087" stroke-miterlimit="10" x1="34" y1="179.9" x2="34" y2="184.5"/>
	<line fill="none" stroke="#EC1E24" stroke-width="0.7087" stroke-miterlimit="10" x1="39.7" y1="179.9" x2="39.7" y2="184.5"/>
	<line fill="none" stroke="#EC1E24" stroke-width="0.7087" stroke-miterlimit="10" x1="42.5" y1="179.9" x2="42.5" y2="184.5"/>
	<line fill="none" stroke="#EC1E24" stroke-width="0.7087" stroke-miterlimit="10" x1="45.4" y1="179.9" x2="45.4" y2="184.5"/>
	<line fill="none" stroke="#EC1E24" stroke-width="0.7087" stroke-miterlimit="10" x1="48.2" y1="179.9" x2="48.2" y2="184.5"/>
	<line fill="none" stroke="#EC1E24" stroke-width="0.7087" stroke-miterlimit="10" x1="53.9" y1="179.9" x2="53.9" y2="184.5"/>
	<line fill="none" stroke="#EC1E24" stroke-width="0.7087" stroke-miterlimit="10" x1="56.7" y1="179.9" x2="56.7" y2="184.5"/>
	<line fill="none" stroke="#EC1E24" stroke-width="0.7087" stroke-miterlimit="10" x1="59.5" y1="179.9" x2="59.5" y2="184.5"/>
	<line fill="none" stroke="#EC1E24" stroke-width="0.7087" stroke-miterlimit="10" x1="62.4" y1="179.9" x2="62.4" y2="184.5"/>
	<line fill="none" stroke="#EC1E24" stroke-width="0.7087" stroke-miterlimit="10" x1="68" y1="179.9" x2="68" y2="184.5"/>
	<line fill="none" stroke="#EC1E24" stroke-width="0.7087" stroke-miterlimit="10" x1="70.9" y1="179.9" x2="70.9" y2="184.5"/>
	<line fill="none" stroke="#EC1E24" stroke-width="0.7087" stroke-miterlimit="10" x1="73.7" y1="179.9" x2="73.7" y2="184.5"/>
	<line fill="none" stroke="#EC1E24" stroke-width="0.7087" stroke-miterlimit="10" x1="76.5" y1="179.9" x2="76.5" y2="184.5"/>
	<line fill="none" stroke="#EC1E24" stroke-width="0.7087" stroke-miterlimit="10" x1="82.2" y1="179.9" x2="82.2" y2="184.5"/>
	<line fill="none" stroke="#EC1E24" stroke-width="0.7087" stroke-miterlimit="10" x1="85" y1="179.9" x2="85" y2="184.5"/>
	<line fill="none" stroke="#EC1E24" stroke-width="0.7087" stroke-miterlimit="10" x1="87.9" y1="179.9" x2="87.9" y2="184.5"/>
	<line fill="none" stroke="#EC1E24" stroke-width="0.7087" stroke-miterlimit="10" x1="90.7" y1="179.9" x2="90.7" y2="184.5"/>
	<line fill="none" stroke="#EC1E24" stroke-width="0.7087" stroke-miterlimit="10" x1="96.4" y1="179.9" x2="96.4" y2="184.5"/>
	<line fill="none" stroke="#EC1E24" stroke-width="0.7087" stroke-miterlimit="10" x1="99.2" y1="179.9" x2="99.2" y2="184.5"/>
	<line fill="none" stroke="#EC1E24" stroke-width="0.7087" stroke-miterlimit="10" x1="102" y1="179.9" x2="102" y2="184.5"/>
	<line fill="none" stroke="#EC1E24" stroke-width="0.7087" stroke-miterlimit="10" x1="104.9" y1="179.9" x2="104.9" y2="184.5"/>
	<line fill="none" stroke="#EC1E24" stroke-width="0.7087" stroke-miterlimit="10" x1="110.5" y1="179.9" x2="110.5" y2="184.5"/>
	<line fill="none" stroke="#EC1E24" stroke-width="0.7087" stroke-miterlimit="10" x1="113.4" y1="179.9" x2="113.4" y2="184.5"/>
	<line fill="none" stroke="#EC1E24" stroke-width="0.7087" stroke-miterlimit="10" x1="116.2" y1="179.9" x2="116.2" y2="184.5"/>
	<line fill="none" stroke="#EC1E24" stroke-width="0.7087" stroke-miterlimit="10" x1="119" y1="179.9" x2="119" y2="184.5"/>
	<line fill="none" stroke="#EC1E24" stroke-width="0.7087" stroke-miterlimit="10" x1="124.7" y1="179.9" x2="124.7" y2="184.5"/>
	<line fill="none" stroke="#EC1E24" stroke-width="0.7087" stroke-miterlimit="10" x1="127.6" y1="179.9" x2="127.6" y2="184.5"/>
	<line fill="none" stroke="#EC1E24" stroke-width="0.7087" stroke-miterlimit="10" x1="130.4" y1="179.9" x2="130.4" y2="184.5"/>
	<line fill="none" stroke="#EC1E24" stroke-width="0.7087" stroke-miterlimit="10" x1="133.2" y1="179.9" x2="133.2" y2="184.5"/>
	<line fill="none" stroke="#EC1E24" stroke-width="0.7087" stroke-miterlimit="10" x1="138.9" y1="179.9" x2="138.9" y2="184.5"/>
	<line fill="none" stroke="#EC1E24" stroke-width="0.7087" stroke-miterlimit="10" x1="141.7" y1="179.9" x2="141.7" y2="184.5"/>
	<line fill="none" stroke="#EC1E24" stroke-width="0.7087" stroke-miterlimit="10" x1="144.6" y1="179.9" x2="144.6" y2="184.5"/>
	<line fill="none" stroke="#EC1E24" stroke-width="0.7087" stroke-miterlimit="10" x1="147.4" y1="179.9" x2="147.4" y2="184.5"/>
	<line fill="none" stroke="#EC1E24" stroke-width="0.7087" stroke-miterlimit="10" x1="153.1" y1="179.9" x2="153.1" y2="184.5"/>
	<line fill="none" stroke="#EC1E24" stroke-width="0.7087" stroke-miterlimit="10" x1="155.9" y1="179.9" x2="155.9" y2="184.5"/>
	<line fill="none" stroke="#EC1E24" stroke-width="0.7087" stroke-miterlimit="10" x1="158.7" y1="179.9" x2="158.7" y2="184.5"/>
	<line fill="none" stroke="#EC1E24" stroke-width="0.7087" stroke-miterlimit="10" x1="161.6" y1="179.9" x2="161.6" y2="184.5"/>
	<line fill="none" stroke="#EC1E24" stroke-width="0.7087" stroke-miterlimit="10" x1="167.2" y1="179.9" x2="167.2" y2="184.5"/>
	<line fill="none" stroke="#EC1E24" stroke-width="0.7087" stroke-miterlimit="10" x1="170.1" y1="179.9" x2="170.1" y2="184.5"/>
	<line fill="none" stroke="#EC1E24" stroke-width="0.7087" stroke-miterlimit="10" x1="172.9" y1="179.9" x2="172.9" y2="184.5"/>
	<line fill="none" stroke="#EC1E24" stroke-width="0.7087" stroke-miterlimit="10" x1="175.7" y1="179.9" x2="175.7" y2="184.5"/>
	<line fill="none" stroke="#EC1E24" stroke-width="0.7087" stroke-miterlimit="10" x1="181.4" y1="179.9" x2="181.4" y2="184.5"/>
	<line fill="none" stroke="#EC1E24" stroke-width="0.7087" stroke-miterlimit="10" x1="184.2" y1="179.9" x2="184.2" y2="184.5"/>
	<line fill="none" stroke="#EC1E24" stroke-width="0.7087" stroke-miterlimit="10" x1="187.1" y1="179.9" x2="187.1" y2="184.5"/>
	<line fill="none" stroke="#EC1E24" stroke-width="0.7087" stroke-miterlimit="10" x1="189.9" y1="179.9" x2="189.9" y2="184.5"/>
	<line fill="none" stroke="#EC1E24" stroke-width="0.7087" stroke-miterlimit="10" x1="195.6" y1="179.9" x2="195.6" y2="184.5"/>
	<line fill="none" stroke="#EC1E24" stroke-width="0.7087" stroke-miterlimit="10" x1="198.4" y1="179.9" x2="198.4" y2="184.5"/>
	<line fill="none" stroke="#EC1E24" stroke-width="0.7087" stroke-miterlimit="10" x1="201.2" y1="179.9" x2="201.2" y2="184.5"/>
	<line fill="none" stroke="#EC1E24" stroke-width="0.7087" stroke-miterlimit="10" x1="204.1" y1="179.9" x2="204.1" y2="184.5"/>
	<line fill="none" stroke="#EC1E24" stroke-width="0.7087" stroke-miterlimit="10" x1="209.7" y1="179.9" x2="209.7" y2="184.5"/>
	<line fill="none" stroke="#EC1E24" stroke-width="0.7087" stroke-miterlimit="10" x1="212.6" y1="179.9" x2="212.6" y2="184.5"/>
	<line fill="none" stroke="#EC1E24" stroke-width="0.7087" stroke-miterlimit="10" x1="215.4" y1="179.9" x2="215.4" y2="184.5"/>
	<line fill="none" stroke="#EC1E24" stroke-width="0.7087" stroke-miterlimit="10" x1="218.3" y1="179.9" x2="218.3" y2="184.5"/>
	<line fill="none" stroke="#EC1E24" stroke-width="0.7087" stroke-miterlimit="10" x1="223.9" y1="179.9" x2="223.9" y2="184.5"/>
	<line fill="none" stroke="#EC1E24" stroke-width="0.7087" stroke-miterlimit="10" x1="226.8" y1="179.9" x2="226.8" y2="184.5"/>
	<line fill="none" stroke="#EC1E24" stroke-width="0.7087" stroke-miterlimit="10" x1="229.6" y1="179.9" x2="229.6" y2="184.5"/>
	<line fill="none" stroke="#EC1E24" stroke-width="0.7087" stroke-miterlimit="10" x1="232.4" y1="179.9" x2="232.4" y2="184.5"/>
	<line fill="none" stroke="#EC1E24" stroke-width="0.7087" stroke-miterlimit="10" x1="238.1" y1="179.9" x2="238.1" y2="184.5"/>
	<line fill="none" stroke="#EC1E24" stroke-width="0.7087" stroke-miterlimit="10" x1="240.9" y1="179.9" x2="240.9" y2="184.5"/>
	<line fill="none" stroke="#EC1E24" stroke-width="0.7087" stroke-miterlimit="10" x1="243.8" y1="179.9" x2="243.8" y2="184.5"/>
	<line fill="none" stroke="#EC1E24" stroke-width="0.7087" stroke-miterlimit="10" x1="246.6" y1="179.9" x2="246.6" y2="184.5"/>
	<line fill="none" stroke="#EC1E24" stroke-width="0.7087" stroke-miterlimit="10" x1="252.3" y1="179.9" x2="252.3" y2="184.5"/>
	<line fill="none" stroke="#EC1E24" stroke-width="0.7087" stroke-miterlimit="10" x1="255.1" y1="179.9" x2="255.1" y2="184.5"/>
	<line fill="none" stroke="#EC1E24" stroke-width="0.7087" stroke-miterlimit="10" x1="257.9" y1="179.9" x2="257.9" y2="184.5"/>
	<line fill="none" stroke="#EC1E24" stroke-width="0.7087" stroke-miterlimit="10" x1="260.8" y1="179.9" x2="260.8" y2="183.5"/>
	<line fill="none" stroke="#EC1E24" stroke-width="0.7087" stroke-miterlimit="10" x1="36.9" y1="177.4" x2="36.9" y2="184.5"/>
	<line fill="none" stroke="#EC1E24" stroke-width="0.7087" stroke-miterlimit="10" x1="65.2" y1="177.4" x2="65.2" y2="184.5"/>
	<line fill="none" stroke="#EC1E24" stroke-width="0.7087" stroke-miterlimit="10" x1="93.5" y1="177.4" x2="93.5" y2="184.5"/>
	<line fill="none" stroke="#EC1E24" stroke-width="0.7087" stroke-miterlimit="10" x1="121.9" y1="177.4" x2="121.9" y2="184.5"/>
	<line fill="none" stroke="#EC1E24" stroke-width="0.7087" stroke-miterlimit="10" x1="150.2" y1="177.4" x2="150.2" y2="184.5"/>
	<line fill="none" stroke="#EC1E24" stroke-width="0.7087" stroke-miterlimit="10" x1="178.6" y1="177.4" x2="178.6" y2="184.5"/>
	<line fill="none" stroke="#EC1E24" stroke-width="0.7087" stroke-miterlimit="10" x1="206.9" y1="177.4" x2="206.9" y2="184.5"/>
	<line fill="none" stroke="#EC1E24" stroke-width="0.7087" stroke-miterlimit="10" x1="235.3" y1="177.4" x2="235.3" y2="184.5"/>
	<line fill="none" stroke="#EC1E24" stroke-width="0.7087" stroke-miterlimit="10" x1="51" y1="174.6" x2="51" y2="184.5"/>
	<line fill="none" stroke="#EC1E24" stroke-width="0.7087" stroke-miterlimit="10" x1="79.4" y1="174.6" x2="79.4" y2="184.5"/>
	<line fill="none" stroke="#EC1E24" stroke-width="0.7087" stroke-miterlimit="10" x1="107.7" y1="174.6" x2="107.7" y2="184.5"/>
	<line fill="none" stroke="#EC1E24" stroke-width="0.7087" stroke-miterlimit="10" x1="136.1" y1="174.6" x2="136.1" y2="184.5"/>
	<line fill="none" stroke="#EC1E24" stroke-width="0.7087" stroke-miterlimit="10" x1="164.4" y1="174.6" x2="164.4" y2="184.5"/>
	<line fill="none" stroke="#EC1E24" stroke-width="0.7087" stroke-miterlimit="10" x1="192.8" y1="174.6" x2="192.8" y2="184.5"/>
	<line fill="none" stroke="#EC1E24" stroke-width="0.7087" stroke-miterlimit="10" x1="221.1" y1="174.6" x2="221.1" y2="184.5"/>
	<line fill="none" stroke="#EC1E24" stroke-width="0.7087" stroke-miterlimit="10" x1="249.4" y1="174.6" x2="249.4" y2="184.5"/>
	<path d="M50.3,168.7l-0.8,0.2l-0.3-1.1l1.5-0.4h1v5h-1.4V168.7z"/>
	<path d="M77.2,171.4l1.9-1.4c0.5-0.4,0.6-0.6,0.6-0.9c0-0.3-0.2-0.5-0.6-0.5c-0.3,0-0.6,0.2-1,0.6l-0.9-0.8c0.5-0.7,1.1-1.1,2-1.1
		c1.1,0,1.8,0.6,1.8,1.6v0c0,0.8-0.4,1.2-1.1,1.7l-0.8,0.6h2v1.1h-3.9V171.4z"/>
	<path d="M105.5,171.7l0.9-0.9c0.4,0.4,0.7,0.6,1.2,0.6c0.4,0,0.6-0.2,0.6-0.5v0c0-0.3-0.3-0.5-0.8-0.5h-0.6l-0.2-0.7l1.1-1h-1.9
		v-1.1h3.6v1l-1.2,1c0.7,0.2,1.3,0.6,1.3,1.4v0c0,1-0.8,1.6-1.9,1.6C106.7,172.5,106,172.2,105.5,171.7z"/>
	<path d="M135.9,171.5h-2.4l-0.2-1l2.6-3.1h1.4v3h0.6v1h-0.6v1h-1.3V171.5z M135.9,170.5V169l-1.2,1.4H135.9z"/>
	<path d="M162.2,171.8l0.8-0.9c0.4,0.3,0.8,0.5,1.2,0.5c0.5,0,0.7-0.2,0.7-0.6v0c0-0.4-0.3-0.6-0.7-0.6c-0.3,0-0.6,0.1-0.8,0.2
		l-0.8-0.5l0.1-2.5h3.3v1.1h-2.2l0,0.8c0.2-0.1,0.5-0.2,0.8-0.2c0.9,0,1.7,0.5,1.7,1.6v0c0,1.1-0.8,1.8-2,1.8
		C163.4,172.5,162.7,172.2,162.2,171.8z"/>
	<path d="M191.1,172c-0.4-0.4-0.6-0.9-0.6-1.9v0c0-1.5,0.8-2.7,2.3-2.7c0.7,0,1.2,0.2,1.6,0.5l-0.6,1c-0.3-0.2-0.6-0.4-1-0.4
		c-0.6,0-0.9,0.4-0.9,1.1c0.3-0.2,0.6-0.4,1.1-0.4c0.9,0,1.6,0.6,1.6,1.5v0c0,1.1-0.9,1.8-2,1.8C191.9,172.5,191.5,172.3,191.1,172z
		 M193.3,170.8L193.3,170.8c0-0.4-0.3-0.7-0.7-0.7s-0.7,0.3-0.7,0.6v0c0,0.4,0.3,0.6,0.7,0.6S193.3,171.2,193.3,170.8z"/>
	<path d="M221.3,168.6H219v-1.2h3.8v1l-2.2,3.9h-1.5L221.3,168.6z"/>
	<path d="M247.2,171.1L247.2,171.1c0-0.6,0.3-1,0.8-1.2c-0.4-0.2-0.7-0.5-0.7-1.1v0c0-0.8,0.8-1.4,1.9-1.4s1.9,0.6,1.9,1.4v0
		c0,0.5-0.3,0.9-0.7,1.1c0.5,0.2,0.8,0.6,0.8,1.2v0c0,0.9-0.8,1.5-2,1.5S247.2,171.9,247.2,171.1z M250,170.9L250,170.9
		c0-0.3-0.3-0.6-0.7-0.6s-0.7,0.2-0.7,0.5v0c0,0.3,0.3,0.6,0.7,0.6C249.7,171.5,250,171.2,250,170.9z M249.9,169L249.9,169
		c0-0.3-0.2-0.5-0.6-0.5s-0.6,0.2-0.6,0.5v0c0,0.3,0.2,0.5,0.6,0.5S249.9,169.3,249.9,169z"/>
	<line fill="none" stroke="#EC1E24" stroke-width="0.7087" stroke-miterlimit="10" x1="27.1" y1="34.3" x2="25" y2="34.3"/>
	<line fill="none" stroke="#EC1E24" stroke-width="0.7087" stroke-miterlimit="10" x1="27.3" y1="37.1" x2="23.2" y2="37.1"/>
	<line fill="none" stroke="#EC1E24" stroke-width="0.7087" stroke-miterlimit="10" x1="27.3" y1="39.9" x2="22.7" y2="39.9"/>
	<line fill="none" stroke="#EC1E24" stroke-width="0.7087" stroke-miterlimit="10" x1="27.3" y1="45.6" x2="22.7" y2="45.6"/>
	<line fill="none" stroke="#EC1E24" stroke-width="0.7087" stroke-miterlimit="10" x1="27.3" y1="48.4" x2="22.7" y2="48.4"/>
	<line fill="none" stroke="#EC1E24" stroke-width="0.7087" stroke-miterlimit="10" x1="27.3" y1="51.3" x2="22.7" y2="51.3"/>
	<line fill="none" stroke="#EC1E24" stroke-width="0.7087" stroke-miterlimit="10" x1="27.3" y1="54.1" x2="22.7" y2="54.1"/>
	<line fill="none" stroke="#EC1E24" stroke-width="0.7087" stroke-miterlimit="10" x1="27.3" y1="59.8" x2="22.7" y2="59.8"/>
	<line fill="none" stroke="#EC1E24" stroke-width="0.7087" stroke-miterlimit="10" x1="27.3" y1="62.6" x2="22.7" y2="62.6"/>
	<line fill="none" stroke="#EC1E24" stroke-width="0.7087" stroke-miterlimit="10" x1="27.3" y1="65.4" x2="22.7" y2="65.4"/>
	<line fill="none" stroke="#EC1E24" stroke-width="0.7087" stroke-miterlimit="10" x1="27.3" y1="68.3" x2="22.7" y2="68.3"/>
	<line fill="none" stroke="#EC1E24" stroke-width="0.7087" stroke-miterlimit="10" x1="27.3" y1="74" x2="22.7" y2="74"/>
	<line fill="none" stroke="#EC1E24" stroke-width="0.7087" stroke-miterlimit="10" x1="27.3" y1="76.8" x2="22.7" y2="76.8"/>
	<line fill="none" stroke="#EC1E24" stroke-width="0.7087" stroke-miterlimit="10" x1="27.3" y1="79.6" x2="22.7" y2="79.6"/>
	<line fill="none" stroke="#EC1E24" stroke-width="0.7087" stroke-miterlimit="10" x1="27.3" y1="82.5" x2="22.7" y2="82.5"/>
	<line fill="none" stroke="#EC1E24" stroke-width="0.7087" stroke-miterlimit="10" x1="27.3" y1="88.1" x2="22.7" y2="88.1"/>
	<line fill="none" stroke="#EC1E24" stroke-width="0.7087" stroke-miterlimit="10" x1="27.3" y1="91" x2="22.7" y2="91"/>
	<line fill="none" stroke="#EC1E24" stroke-width="0.7087" stroke-miterlimit="10" x1="27.3" y1="93.8" x2="22.7" y2="93.8"/>
	<line fill="none" stroke="#EC1E24" stroke-width="0.7087" stroke-miterlimit="10" x1="27.3" y1="96.6" x2="22.7" y2="96.6"/>
	<line fill="none" stroke="#EC1E24" stroke-width="0.7087" stroke-miterlimit="10" x1="27.3" y1="102.3" x2="22.7" y2="102.3"/>
	<line fill="none" stroke="#EC1E24" stroke-width="0.7087" stroke-miterlimit="10" x1="27.3" y1="105.1" x2="22.7" y2="105.1"/>
	<line fill="none" stroke="#EC1E24" stroke-width="0.7087" stroke-miterlimit="10" x1="27.3" y1="108" x2="22.7" y2="108"/>
	<line fill="none" stroke="#EC1E24" stroke-width="0.7087" stroke-miterlimit="10" x1="27.3" y1="110.8" x2="22.7" y2="110.8"/>
	<line fill="none" stroke="#EC1E24" stroke-width="0.7087" stroke-miterlimit="10" x1="27.3" y1="116.5" x2="22.7" y2="116.5"/>
	<line fill="none" stroke="#EC1E24" stroke-width="0.7087" stroke-miterlimit="10" x1="27.3" y1="119.3" x2="22.7" y2="119.3"/>
	<line fill="none" stroke="#EC1E24" stroke-width="0.7087" stroke-miterlimit="10" x1="27.3" y1="122.1" x2="22.7" y2="122.1"/>
	<line fill="none" stroke="#EC1E24" stroke-width="0.7087" stroke-miterlimit="10" x1="27.3" y1="125" x2="22.7" y2="125"/>
	<line fill="none" stroke="#EC1E24" stroke-width="0.7087" stroke-miterlimit="10" x1="27.3" y1="130.6" x2="22.7" y2="130.6"/>
	<line fill="none" stroke="#EC1E24" stroke-width="0.7087" stroke-miterlimit="10" x1="27.3" y1="133.5" x2="22.7" y2="133.5"/>
	<line fill="none" stroke="#EC1E24" stroke-width="0.7087" stroke-miterlimit="10" x1="27.3" y1="136.3" x2="22.7" y2="136.3"/>
	<line fill="none" stroke="#EC1E24" stroke-width="0.7087" stroke-miterlimit="10" x1="27.3" y1="139.1" x2="22.7" y2="139.1"/>
	<line fill="none" stroke="#EC1E24" stroke-width="0.7087" stroke-miterlimit="10" x1="27.3" y1="144.8" x2="22.7" y2="144.8"/>
	<line fill="none" stroke="#EC1E24" stroke-width="0.7087" stroke-miterlimit="10" x1="27.3" y1="147.6" x2="22.7" y2="147.6"/>
	<line fill="none" stroke="#EC1E24" stroke-width="0.7087" stroke-miterlimit="10" x1="27.3" y1="150.5" x2="22.7" y2="150.5"/>
	<line fill="none" stroke="#EC1E24" stroke-width="0.7087" stroke-miterlimit="10" x1="27.3" y1="153.3" x2="22.7" y2="153.3"/>
	<line fill="none" stroke="#EC1E24" stroke-width="0.7087" stroke-miterlimit="10" x1="27.3" y1="159" x2="22.7" y2="159"/>
	<line fill="none" stroke="#EC1E24" stroke-width="0.7087" stroke-miterlimit="10" x1="27.3" y1="161.8" x2="22.7" y2="161.8"/>
	<line fill="none" stroke="#EC1E24" stroke-width="0.7087" stroke-miterlimit="10" x1="27.3" y1="164.7" x2="22.7" y2="164.7"/>
	<line fill="none" stroke="#EC1E24" stroke-width="0.7087" stroke-miterlimit="10" x1="27.3" y1="167.5" x2="22.7" y2="167.5"/>
	<line fill="none" stroke="#EC1E24" stroke-width="0.7087" stroke-miterlimit="10" x1="27.3" y1="173.2" x2="22.7" y2="173.2"/>
	<line fill="none" stroke="#EC1E24" stroke-width="0.7087" stroke-miterlimit="10" x1="27.3" y1="176" x2="22.7" y2="176"/>
	<line fill="none" stroke="#EC1E24" stroke-width="0.7087" stroke-miterlimit="10" x1="27.3" y1="178.8" x2="23.2" y2="178.8"/>
	<line fill="none" stroke="#EC1E24" stroke-width="0.7087" stroke-miterlimit="10" x1="27.3" y1="181.7" x2="24.8" y2="181.7"/>
	<line fill="none" stroke="#EC1E24" stroke-width="0.7087" stroke-miterlimit="10" x1="29.8" y1="56.9" x2="22.7" y2="56.9"/>
	<line fill="none" stroke="#EC1E24" stroke-width="0.7087" stroke-miterlimit="10" x1="29.8" y1="85.3" x2="22.7" y2="85.3"/>
	<line fill="none" stroke="#EC1E24" stroke-width="0.7087" stroke-miterlimit="10" x1="29.8" y1="113.6" x2="22.7" y2="113.6"/>
	<line fill="none" stroke="#EC1E24" stroke-width="0.7087" stroke-miterlimit="10" x1="29.8" y1="142" x2="22.7" y2="142"/>
	<line fill="none" stroke="#EC1E24" stroke-width="0.7087" stroke-miterlimit="10" x1="29.8" y1="170.3" x2="22.7" y2="170.3"/>
	<line fill="none" stroke="#EC1E24" stroke-width="0.7087" stroke-miterlimit="10" x1="32.6" y1="42.8" x2="22.7" y2="42.8"/>
	<line fill="none" stroke="#EC1E24" stroke-width="0.7087" stroke-miterlimit="10" x1="32.6" y1="71.1" x2="22.7" y2="71.1"/>
	<line fill="none" stroke="#EC1E24" stroke-width="0.7087" stroke-miterlimit="10" x1="32.6" y1="99.5" x2="22.7" y2="99.5"/>
	<line fill="none" stroke="#EC1E24" stroke-width="0.7087" stroke-miterlimit="10" x1="32.6" y1="127.8" x2="22.7" y2="127.8"/>
	<line fill="none" stroke="#EC1E24" stroke-width="0.7087" stroke-miterlimit="10" x1="32.6" y1="156.2" x2="22.7" y2="156.2"/>
	<path d="M38.3,155.7l-0.2-0.8l1.1-0.3l0.4,1.5v1h-5v-1.4H38.3z"/>
	<path d="M35.6,125.9l1.4,1.9c0.4,0.5,0.6,0.6,0.9,0.6c0.3,0,0.5-0.2,0.5-0.6c0-0.3-0.2-0.6-0.6-1l0.8-0.9c0.7,0.5,1.1,1.1,1.1,2
		c0,1.1-0.6,1.8-1.6,1.8h0c-0.8,0-1.2-0.4-1.7-1.1l-0.6-0.8v2h-1.1v-3.9H35.6z"/>
	<path d="M35.5,97.5l0.9,0.9c-0.4,0.4-0.6,0.7-0.6,1.2c0,0.4,0.2,0.6,0.5,0.6h0c0.3,0,0.5-0.3,0.5-0.8v-0.6l0.7-0.2l1,1.1v-1.9h1.1
		v3.6h-1l-1-1.2c-0.2,0.7-0.6,1.3-1.4,1.3h0c-1,0-1.6-0.8-1.6-1.9C34.6,98.6,35,97.9,35.5,97.5z"/>
	<path d="M35.6,72v-2.4l1-0.2l3.1,2.6v1.4h-3V74h-1v-0.6h-1V72H35.6z M36.6,72H38l-1.4-1.2V72z"/>
	<path d="M35.4,40.8l0.9,0.8c-0.3,0.4-0.5,0.8-0.5,1.2c0,0.5,0.2,0.7,0.6,0.7h0c0.4,0,0.6-0.3,0.6-0.7c0-0.3-0.1-0.6-0.2-0.8
		l0.5-0.8l2.5,0.1v3.3h-1.1v-2.2l-0.8,0c0.1,0.2,0.2,0.5,0.2,0.8c0,0.9-0.5,1.7-1.6,1.7h0c-1.1,0-1.8-0.8-1.8-2
		C34.6,41.9,34.9,41.3,35.4,40.8z"/>
	<line fill="none" stroke="#EC1E24" stroke-width="0.7087" stroke-miterlimit="10" x1="26.8" y1="32.7" x2="26.8" y2="34.6"/>
	<line fill="none" stroke="#EC1E24" stroke-width="0.7087" stroke-miterlimit="10" x1="35.8" y1="31.5" x2="35.8" y2="36.1"/>
	<line fill="none" stroke="#EC1E24" stroke-width="0.7087" stroke-miterlimit="10" x1="40.3" y1="31.5" x2="40.3" y2="36.1"/>
	<line fill="none" stroke="#EC1E24" stroke-width="0.7087" stroke-miterlimit="10" x1="44.8" y1="31.5" x2="44.8" y2="36.1"/>
	<line fill="none" stroke="#EC1E24" stroke-width="0.7087" stroke-miterlimit="10" x1="53.8" y1="31.5" x2="53.8" y2="36.1"/>
	<line fill="none" stroke="#EC1E24" stroke-width="0.7087" stroke-miterlimit="10" x1="58.3" y1="31.5" x2="58.3" y2="36.1"/>
	<line fill="none" stroke="#EC1E24" stroke-width="0.7087" stroke-miterlimit="10" x1="62.8" y1="31.5" x2="62.8" y2="36.1"/>
	<line fill="none" stroke="#EC1E24" stroke-width="0.7087" stroke-miterlimit="10" x1="71.8" y1="31.5" x2="71.8" y2="36.1"/>
	<line fill="none" stroke="#EC1E24" stroke-width="0.7087" stroke-miterlimit="10" x1="76.3" y1="31.5" x2="76.3" y2="36.1"/>
	<line fill="none" stroke="#EC1E24" stroke-width="0.7087" stroke-miterlimit="10" x1="80.8" y1="31.5" x2="80.8" y2="36.1"/>
	<line fill="none" stroke="#EC1E24" stroke-width="0.7087" stroke-miterlimit="10" x1="89.8" y1="31.5" x2="89.8" y2="36.1"/>
	<line fill="none" stroke="#EC1E24" stroke-width="0.7087" stroke-miterlimit="10" x1="94.3" y1="31.5" x2="94.3" y2="36.1"/>
	<line fill="none" stroke="#EC1E24" stroke-width="0.7087" stroke-miterlimit="10" x1="98.8" y1="31.5" x2="98.8" y2="36.1"/>
	<line fill="none" stroke="#EC1E24" stroke-width="0.7087" stroke-miterlimit="10" x1="107.8" y1="31.5" x2="107.8" y2="36.1"/>
	<line fill="none" stroke="#EC1E24" stroke-width="0.7087" stroke-miterlimit="10" x1="112.3" y1="31.5" x2="112.3" y2="36.1"/>
	<line fill="none" stroke="#EC1E24" stroke-width="0.7087" stroke-miterlimit="10" x1="116.8" y1="31.5" x2="116.8" y2="36.1"/>
	<line fill="none" stroke="#EC1E24" stroke-width="0.7087" stroke-miterlimit="10" x1="125.8" y1="31.5" x2="125.8" y2="36.1"/>
	<line fill="none" stroke="#EC1E24" stroke-width="0.7087" stroke-miterlimit="10" x1="130.3" y1="31.5" x2="130.3" y2="36.1"/>
	<line fill="none" stroke="#EC1E24" stroke-width="0.7087" stroke-miterlimit="10" x1="134.8" y1="31.5" x2="134.8" y2="36.1"/>
	<line fill="none" stroke="#EC1E24" stroke-width="0.7087" stroke-miterlimit="10" x1="143.8" y1="31.5" x2="143.8" y2="36.1"/>
	<line fill="none" stroke="#EC1E24" stroke-width="0.7087" stroke-miterlimit="10" x1="148.3" y1="31.5" x2="148.3" y2="36.1"/>
	<line fill="none" stroke="#EC1E24" stroke-width="0.7087" stroke-miterlimit="10" x1="152.8" y1="31.5" x2="152.8" y2="36.1"/>
	<line fill="none" stroke="#EC1E24" stroke-width="0.7087" stroke-miterlimit="10" x1="161.8" y1="31.5" x2="161.8" y2="36.1"/>
	<line fill="none" stroke="#EC1E24" stroke-width="0.7087" stroke-miterlimit="10" x1="166.3" y1="31.5" x2="166.3" y2="36.1"/>
	<line fill="none" stroke="#EC1E24" stroke-width="0.7087" stroke-miterlimit="10" x1="170.8" y1="31.5" x2="170.8" y2="36.1"/>
	<line fill="none" stroke="#EC1E24" stroke-width="0.7087" stroke-miterlimit="10" x1="179.8" y1="31.5" x2="179.8" y2="36.1"/>
	<line fill="none" stroke="#EC1E24" stroke-width="0.7087" stroke-miterlimit="10" x1="184.3" y1="31.5" x2="184.3" y2="36.1"/>
	<line fill="none" stroke="#EC1E24" stroke-width="0.7087" stroke-miterlimit="10" x1="188.8" y1="31.5" x2="188.8" y2="36.1"/>
	<line fill="none" stroke="#EC1E24" stroke-width="0.7087" stroke-miterlimit="10" x1="197.8" y1="31.5" x2="197.8" y2="36.1"/>
	<line fill="none" stroke="#EC1E24" stroke-width="0.7087" stroke-miterlimit="10" x1="202.3" y1="31.5" x2="202.3" y2="36.1"/>
	<line fill="none" stroke="#EC1E24" stroke-width="0.7087" stroke-miterlimit="10" x1="206.8" y1="31.5" x2="206.8" y2="36.1"/>
	<line fill="none" stroke="#EC1E24" stroke-width="0.7087" stroke-miterlimit="10" x1="215.8" y1="31.5" x2="215.8" y2="36.1"/>
	<line fill="none" stroke="#EC1E24" stroke-width="0.7087" stroke-miterlimit="10" x1="220.3" y1="31.5" x2="220.3" y2="36.1"/>
	<line fill="none" stroke="#EC1E24" stroke-width="0.7087" stroke-miterlimit="10" x1="224.8" y1="31.5" x2="224.8" y2="36.1"/>
	<line fill="none" stroke="#EC1E24" stroke-width="0.7087" stroke-miterlimit="10" x1="233.8" y1="31.5" x2="233.8" y2="36.1"/>
	<line fill="none" stroke="#EC1E24" stroke-width="0.7087" stroke-miterlimit="10" x1="238.3" y1="31.5" x2="238.3" y2="36.1"/>
	<line fill="none" stroke="#EC1E24" stroke-width="0.7087" stroke-miterlimit="10" x1="242.8" y1="31.5" x2="242.8" y2="36.1"/>
	<line fill="none" stroke="#EC1E24" stroke-width="0.7087" stroke-miterlimit="10" x1="251.8" y1="31.5" x2="251.8" y2="36.1"/>
	<line fill="none" stroke="#EC1E24" stroke-width="0.7087" stroke-miterlimit="10" x1="256.3" y1="31.5" x2="256.3" y2="36.1"/>
	<line fill="none" stroke="#EC1E24" stroke-width="0.7087" stroke-miterlimit="10" x1="260.8" y1="32.5" x2="260.8" y2="36.1"/>
	<line fill="none" stroke="#EC1E24" stroke-width="0.7087" stroke-miterlimit="10" x1="31.3" y1="31.5" x2="31.3" y2="37.9"/>
	<line fill="none" stroke="#EC1E24" stroke-width="0.7087" stroke-miterlimit="10" x1="67.3" y1="31.5" x2="67.3" y2="37.9"/>
	<line fill="none" stroke="#EC1E24" stroke-width="0.7087" stroke-miterlimit="10" x1="103.3" y1="31.5" x2="103.3" y2="37.9"/>
	<line fill="none" stroke="#EC1E24" stroke-width="0.7087" stroke-miterlimit="10" x1="139.3" y1="31.5" x2="139.3" y2="37.9"/>
	<line fill="none" stroke="#EC1E24" stroke-width="0.7087" stroke-miterlimit="10" x1="175.3" y1="31.5" x2="175.3" y2="37.9"/>
	<line fill="none" stroke="#EC1E24" stroke-width="0.7087" stroke-miterlimit="10" x1="211.3" y1="31.5" x2="211.3" y2="37.9"/>
	<line fill="none" stroke="#EC1E24" stroke-width="0.7087" stroke-miterlimit="10" x1="247.3" y1="31.5" x2="247.3" y2="37.9"/>
	<line fill="none" stroke="#EC1E24" stroke-width="0.7087" stroke-miterlimit="10" x1="85.3" y1="31.5" x2="85.3" y2="39.6"/>
	<line fill="none" stroke="#EC1E24" stroke-width="0.7087" stroke-miterlimit="10" x1="157.3" y1="31.5" x2="157.3" y2="39.6"/>
	<line fill="none" stroke="#EC1E24" stroke-width="0.7087" stroke-miterlimit="10" x1="229.3" y1="31.5" x2="229.3" y2="39.6"/>
	<line fill="none" stroke="#EC1E24" stroke-width="0.7087" stroke-miterlimit="10" x1="49.3" y1="31.5" x2="49.3" y2="41.7"/>
	<line fill="none" stroke="#EC1E24" stroke-width="0.7087" stroke-miterlimit="10" x1="121.3" y1="31.5" x2="121.3" y2="41.7"/>
	<line fill="none" stroke="#EC1E24" stroke-width="0.7087" stroke-miterlimit="10" x1="193.3" y1="31.5" x2="193.3" y2="41.7"/>
	<path d="M194.1,46.5l0.8-0.2l0.3,1.1l-1.5,0.4h-1v-5h1.4V46.5z"/>
	<path d="M123.6,43.8l-1.9,1.4c-0.5,0.4-0.6,0.6-0.6,0.9c0,0.3,0.2,0.5,0.6,0.5c0.3,0,0.6-0.2,1-0.6l0.9,0.8c-0.5,0.7-1.1,1.1-2,1.1
		c-1.1,0-1.8-0.6-1.8-1.6v0c0-0.8,0.4-1.2,1.1-1.7l0.8-0.6h-2v-1.1h3.9V43.8z"/>
	<path d="M51.3,43.7l-0.9,0.9c-0.4-0.4-0.7-0.6-1.2-0.6c-0.4,0-0.6,0.2-0.6,0.5v0c0,0.3,0.3,0.5,0.8,0.5H50l0.2,0.7l-1.1,1H51v1.1
		h-3.6v-1l1.2-1c-0.7-0.2-1.3-0.6-1.3-1.4v0c0-1,0.8-1.6,1.9-1.6C50.2,42.8,50.9,43.1,51.3,43.7z"/>
	<line fill="none" stroke="#EC1E24" stroke-width="0.7087" stroke-miterlimit="10" x1="264.3" y1="36" x2="260.8" y2="36"/>
	<line fill="none" stroke="#EC1E24" stroke-width="0.7087" stroke-miterlimit="10" x1="265.3" y1="40.5" x2="260.8" y2="40.5"/>
	<line fill="none" stroke="#EC1E24" stroke-width="0.7087" stroke-miterlimit="10" x1="265.3" y1="45" x2="260.8" y2="45"/>
	<line fill="none" stroke="#EC1E24" stroke-width="0.7087" stroke-miterlimit="10" x1="265.3" y1="54" x2="260.8" y2="54"/>
	<line fill="none" stroke="#EC1E24" stroke-width="0.7087" stroke-miterlimit="10" x1="265.3" y1="58.5" x2="260.8" y2="58.5"/>
	<line fill="none" stroke="#EC1E24" stroke-width="0.7087" stroke-miterlimit="10" x1="265.3" y1="63" x2="260.8" y2="63"/>
	<line fill="none" stroke="#EC1E24" stroke-width="0.7087" stroke-miterlimit="10" x1="265.3" y1="72" x2="260.8" y2="72"/>
	<line fill="none" stroke="#EC1E24" stroke-width="0.7087" stroke-miterlimit="10" x1="265.3" y1="76.5" x2="260.8" y2="76.5"/>
	<line fill="none" stroke="#EC1E24" stroke-width="0.7087" stroke-miterlimit="10" x1="265.3" y1="81" x2="260.8" y2="81"/>
	<line fill="none" stroke="#EC1E24" stroke-width="0.7087" stroke-miterlimit="10" x1="265.3" y1="90" x2="260.8" y2="90"/>
	<line fill="none" stroke="#EC1E24" stroke-width="0.7087" stroke-miterlimit="10" x1="265.3" y1="94.5" x2="260.8" y2="94.5"/>
	<line fill="none" stroke="#EC1E24" stroke-width="0.7087" stroke-miterlimit="10" x1="265.3" y1="99" x2="260.8" y2="99"/>
	<line fill="none" stroke="#EC1E24" stroke-width="0.7087" stroke-miterlimit="10" x1="265.3" y1="108" x2="260.8" y2="108"/>
	<line fill="none" stroke="#EC1E24" stroke-width="0.7087" stroke-miterlimit="10" x1="265.3" y1="112.5" x2="260.8" y2="112.5"/>
	<line fill="none" stroke="#EC1E24" stroke-width="0.7087" stroke-miterlimit="10" x1="265.3" y1="117" x2="260.8" y2="117"/>
	<line fill="none" stroke="#EC1E24" stroke-width="0.7087" stroke-miterlimit="10" x1="265.3" y1="126" x2="260.8" y2="126"/>
	<line fill="none" stroke="#EC1E24" stroke-width="0.7087" stroke-miterlimit="10" x1="265.3" y1="130.5" x2="260.8" y2="130.5"/>
	<line fill="none" stroke="#EC1E24" stroke-width="0.7087" stroke-miterlimit="10" x1="265.3" y1="135" x2="260.8" y2="135"/>
	<line fill="none" stroke="#EC1E24" stroke-width="0.7087" stroke-miterlimit="10" x1="265.3" y1="144" x2="260.8" y2="144"/>
	<line fill="none" stroke="#EC1E24" stroke-width="0.7087" stroke-miterlimit="10" x1="265.3" y1="148.5" x2="260.8" y2="148.5"/>
	<line fill="none" stroke="#EC1E24" stroke-width="0.7087" stroke-miterlimit="10" x1="265.3" y1="153" x2="260.8" y2="153"/>
	<line fill="none" stroke="#EC1E24" stroke-width="0.7087" stroke-miterlimit="10" x1="265.3" y1="162" x2="260.8" y2="162"/>
	<line fill="none" stroke="#EC1E24" stroke-width="0.7087" stroke-miterlimit="10" x1="265.3" y1="166.5" x2="260.8" y2="166.5"/>
	<line fill="none" stroke="#EC1E24" stroke-width="0.7087" stroke-miterlimit="10" x1="265.3" y1="171" x2="260.8" y2="171"/>
	<line fill="none" stroke="#EC1E24" stroke-width="0.7087" stroke-miterlimit="10" x1="264.4" y1="180" x2="260.8" y2="180"/>
	<line fill="none" stroke="#EC1E24" stroke-width="0.7087" stroke-miterlimit="10" x1="265.3" y1="49.5" x2="258.9" y2="49.5"/>
	<line fill="none" stroke="#EC1E24" stroke-width="0.7087" stroke-miterlimit="10" x1="265.3" y1="85.5" x2="258.9" y2="85.5"/>
	<line fill="none" stroke="#EC1E24" stroke-width="0.7087" stroke-miterlimit="10" x1="265.3" y1="121.5" x2="258.9" y2="121.5"/>
	<line fill="none" stroke="#EC1E24" stroke-width="0.7087" stroke-miterlimit="10" x1="265.3" y1="157.5" x2="258.9" y2="157.5"/>
	<line fill="none" stroke="#EC1E24" stroke-width="0.7087" stroke-miterlimit="10" x1="265.3" y1="67.5" x2="257.2" y2="67.5"/>
	<line fill="none" stroke="#EC1E24" stroke-width="0.7087" stroke-miterlimit="10" x1="265.3" y1="139.5" x2="257.2" y2="139.5"/>
	<line fill="none" stroke="#EC1E24" stroke-width="0.7087" stroke-miterlimit="10" x1="265.3" y1="103.5" x2="255.1" y2="103.5"/>
	<line fill="none" stroke="#EC1E24" stroke-width="0.7087" stroke-miterlimit="10" x1="265.3" y1="175.5" x2="255.1" y2="175.5"/>
	<path d="M250.2,104.1l0.2,0.8l-1.1,0.3l-0.4-1.5v-1h5v1.4H250.2z"/>
	<g>
		<path fill="#231F20" d="M171.2,71.9c0,0.2,0,0.3-0.1,0.5c0,0.1-0.1,0.3-0.2,0.4s-0.2,0.2-0.3,0.2c-0.1,0.1-0.3,0.1-0.5,0.1
			c-0.2,0-0.3,0-0.4-0.1c-0.1,0-0.2-0.1-0.3-0.2c-0.1-0.1-0.2-0.2-0.2-0.4c0-0.1-0.1-0.3-0.1-0.5c0-0.2,0-0.3,0.1-0.5
			c0-0.1,0.1-0.3,0.2-0.4c0.1-0.1,0.2-0.2,0.3-0.2c0.1-0.1,0.3-0.1,0.5-0.1c0.2,0,0.3,0,0.4,0.1c0.1,0,0.2,0.1,0.3,0.2
			c0.1,0.1,0.2,0.2,0.2,0.4C171.2,71.5,171.2,71.7,171.2,71.9z M170.6,71.9c0-0.2,0-0.4-0.1-0.5c-0.1-0.1-0.2-0.2-0.4-0.2
			c-0.1,0-0.2,0-0.2,0.1c-0.1,0-0.1,0.1-0.2,0.1c0,0.1-0.1,0.1-0.1,0.2c0,0.1,0,0.2,0,0.3c0,0.2,0,0.4,0.1,0.5
			c0.1,0.1,0.2,0.2,0.4,0.2c0.1,0,0.2,0,0.2-0.1c0.1,0,0.1-0.1,0.2-0.1c0-0.1,0.1-0.1,0.1-0.2C170.6,72.1,170.6,72,170.6,71.9z"/>
		<path fill="#231F20" d="M167.2,78.7h-0.5l1.5-3.5h0.5L167.2,78.7z"/>
		<path fill="#231F20" d="M169.7,75.2l1.5,3.5h-0.5l-1.5-3.5H169.7z"/>
		<path fill="#231F20" d="M164.8,84h-0.5l1.5-3.5h0.5L164.8,84z"/>
		<path fill="#231F20" d="M167.7,81.3c0.1,0,0.1,0,0.2,0c0,0,0.1,0,0.1,0.1c0,0,0.1,0.1,0.1,0.1c0,0,0,0.1,0,0.2c0,0.1,0,0.1,0,0.2
			c0,0,0,0.1-0.1,0.1c0,0-0.1,0.1-0.1,0.1s-0.1,0-0.2,0s-0.1,0-0.2,0c0,0-0.1,0-0.1-0.1c0,0-0.1-0.1-0.1-0.1c0,0,0-0.1,0-0.2
			c0-0.1,0-0.1,0-0.2c0,0,0-0.1,0.1-0.1c0,0,0.1-0.1,0.1-0.1C167.6,81.3,167.7,81.3,167.7,81.3z M167.7,82.8c0.1,0,0.1,0,0.2,0
			s0.1,0,0.1,0.1c0,0,0.1,0.1,0.1,0.1c0,0,0,0.1,0,0.2c0,0.1,0,0.1,0,0.2c0,0,0,0.1-0.1,0.1c0,0-0.1,0.1-0.1,0.1c0,0-0.1,0-0.2,0
			s-0.1,0-0.2,0c0,0-0.1,0-0.1-0.1c0,0-0.1-0.1-0.1-0.1c0,0,0-0.1,0-0.2c0-0.1,0-0.1,0-0.2c0,0,0-0.1,0.1-0.1c0,0,0.1-0.1,0.1-0.1
			C167.6,82.8,167.7,82.8,167.7,82.8z"/>
		<path fill="#231F20" d="M170.1,81.3c0.1,0,0.1,0,0.2,0c0,0,0.1,0,0.1,0.1c0,0,0.1,0.1,0.1,0.1c0,0,0,0.1,0,0.2c0,0.1,0,0.1,0,0.2
			c0,0,0,0.1-0.1,0.1c0,0-0.1,0.1-0.1,0.1s-0.1,0-0.2,0s-0.1,0-0.2,0c0,0-0.1,0-0.1-0.1c0,0-0.1-0.1-0.1-0.1c0,0,0-0.1,0-0.2
			c0-0.1,0-0.1,0-0.2c0,0,0-0.1,0.1-0.1c0,0,0.1-0.1,0.1-0.1C170,81.3,170.1,81.3,170.1,81.3z M170.1,82.8c0.1,0,0.1,0,0.2,0
			s0.1,0,0.1,0.1c0,0,0.1,0.1,0.1,0.1c0,0,0,0.1,0,0.2c0,0.1,0,0.1,0,0.2c0,0,0,0.1-0.1,0.1c0,0-0.1,0.1-0.1,0.1c0,0-0.1,0-0.2,0
			s-0.1,0-0.2,0c0,0-0.1,0-0.1-0.1c0,0-0.1-0.1-0.1-0.1c0,0,0-0.1,0-0.2c0-0.1,0-0.1,0-0.2c0,0,0-0.1,0.1-0.1c0,0,0.1-0.1,0.1-0.1
			C170,82.8,170.1,82.8,170.1,82.8z"/>
		<path fill="#231F20" d="M172.1,80.5l1.5,3.5h-0.5l-1.5-3.5H172.1z"/>
		<path fill="#231F20" d="M131,85.8l1.5,3.5H132l-1.5-3.5H131z"/>
		<path fill="#231F20" d="M135.8,89.3h-0.5l1.5-3.5h0.5L135.8,89.3z"/>
		<path fill="#231F20" d="M162.3,89.3h-0.5l1.5-3.5h0.5L162.3,89.3z"/>
		<path fill="#231F20" d="M165.3,86.6c0.1,0,0.1,0,0.2,0c0,0,0.1,0,0.1,0.1s0.1,0.1,0.1,0.1c0,0,0,0.1,0,0.2c0,0.1,0,0.1,0,0.2
			c0,0,0,0.1-0.1,0.1c0,0-0.1,0.1-0.1,0.1c0,0-0.1,0-0.2,0s-0.1,0-0.2,0c0,0-0.1,0-0.1-0.1c0,0-0.1-0.1-0.1-0.1s0-0.1,0-0.2
			c0-0.1,0-0.1,0-0.2c0,0,0-0.1,0.1-0.1c0,0,0.1-0.1,0.1-0.1C165.2,86.6,165.2,86.6,165.3,86.6z M165.3,88.1c0.1,0,0.1,0,0.2,0
			c0,0,0.1,0,0.1,0.1c0,0,0.1,0.1,0.1,0.1c0,0,0,0.1,0,0.2c0,0.1,0,0.1,0,0.2c0,0,0,0.1-0.1,0.1s-0.1,0.1-0.1,0.1c0,0-0.1,0-0.2,0
			s-0.1,0-0.2,0c0,0-0.1,0-0.1-0.1c0,0-0.1-0.1-0.1-0.1c0,0,0-0.1,0-0.2c0-0.1,0-0.1,0-0.2c0,0,0-0.1,0.1-0.1c0,0,0.1-0.1,0.1-0.1
			C165.2,88.1,165.2,88.1,165.3,88.1z"/>
		<path fill="#231F20" d="M167.7,86.6c0.1,0,0.1,0,0.2,0c0,0,0.1,0,0.1,0.1c0,0,0.1,0.1,0.1,0.1c0,0,0,0.1,0,0.2c0,0.1,0,0.1,0,0.2
			c0,0,0,0.1-0.1,0.1c0,0-0.1,0.1-0.1,0.1c0,0-0.1,0-0.2,0s-0.1,0-0.2,0c0,0-0.1,0-0.1-0.1c0,0-0.1-0.1-0.1-0.1c0,0,0-0.1,0-0.2
			c0-0.1,0-0.1,0-0.2c0,0,0-0.1,0.1-0.1c0,0,0.1-0.1,0.1-0.1C167.6,86.6,167.7,86.6,167.7,86.6z M167.7,88.1c0.1,0,0.1,0,0.2,0
			c0,0,0.1,0,0.1,0.1c0,0,0.1,0.1,0.1,0.1c0,0,0,0.1,0,0.2c0,0.1,0,0.1,0,0.2c0,0,0,0.1-0.1,0.1c0,0-0.1,0.1-0.1,0.1s-0.1,0-0.2,0
			s-0.1,0-0.2,0c0,0-0.1,0-0.1-0.1c0,0-0.1-0.1-0.1-0.1c0,0,0-0.1,0-0.2c0-0.1,0-0.1,0-0.2c0,0,0-0.1,0.1-0.1c0,0,0.1-0.1,0.1-0.1
			C167.6,88.1,167.7,88.1,167.7,88.1z"/>
		<path fill="#231F20" d="M170.1,86.6c0.1,0,0.1,0,0.2,0c0,0,0.1,0,0.1,0.1c0,0,0.1,0.1,0.1,0.1c0,0,0,0.1,0,0.2c0,0.1,0,0.1,0,0.2
			c0,0,0,0.1-0.1,0.1c0,0-0.1,0.1-0.1,0.1c0,0-0.1,0-0.2,0s-0.1,0-0.2,0c0,0-0.1,0-0.1-0.1c0,0-0.1-0.1-0.1-0.1c0,0,0-0.1,0-0.2
			c0-0.1,0-0.1,0-0.2c0,0,0-0.1,0.1-0.1c0,0,0.1-0.1,0.1-0.1C170,86.6,170.1,86.6,170.1,86.6z M170.1,88.1c0.1,0,0.1,0,0.2,0
			c0,0,0.1,0,0.1,0.1c0,0,0.1,0.1,0.1,0.1c0,0,0,0.1,0,0.2c0,0.1,0,0.1,0,0.2c0,0,0,0.1-0.1,0.1c0,0-0.1,0.1-0.1,0.1s-0.1,0-0.2,0
			s-0.1,0-0.2,0c0,0-0.1,0-0.1-0.1c0,0-0.1-0.1-0.1-0.1c0,0,0-0.1,0-0.2c0-0.1,0-0.1,0-0.2c0,0,0-0.1,0.1-0.1c0,0,0.1-0.1,0.1-0.1
			C170,88.1,170.1,88.1,170.1,88.1z"/>
		<path fill="#231F20" d="M172.6,86.6c0.1,0,0.1,0,0.2,0c0,0,0.1,0,0.1,0.1s0.1,0.1,0.1,0.1c0,0,0,0.1,0,0.2c0,0.1,0,0.1,0,0.2
			c0,0,0,0.1-0.1,0.1c0,0-0.1,0.1-0.1,0.1c0,0-0.1,0-0.2,0c-0.1,0-0.1,0-0.2,0c0,0-0.1,0-0.1-0.1c0,0-0.1-0.1-0.1-0.1s0-0.1,0-0.2
			c0-0.1,0-0.1,0-0.2c0,0,0-0.1,0.1-0.1c0,0,0.1-0.1,0.1-0.1C172.4,86.6,172.5,86.6,172.6,86.6z M172.6,88.1c0.1,0,0.1,0,0.2,0
			c0,0,0.1,0,0.1,0.1c0,0,0.1,0.1,0.1,0.1c0,0,0,0.1,0,0.2c0,0.1,0,0.1,0,0.2c0,0,0,0.1-0.1,0.1s-0.1,0.1-0.1,0.1c0,0-0.1,0-0.2,0
			c-0.1,0-0.1,0-0.2,0c0,0-0.1,0-0.1-0.1c0,0-0.1-0.1-0.1-0.1c0,0,0-0.1,0-0.2c0-0.1,0-0.1,0-0.2c0,0,0-0.1,0.1-0.1
			c0,0,0.1-0.1,0.1-0.1C172.4,88.1,172.5,88.1,172.6,88.1z"/>
		<path fill="#231F20" d="M174.5,85.8l1.5,3.5h-0.5l-1.5-3.5H174.5z"/>
		<path fill="#231F20" d="M128.3,94.5c0.1,0,0.2,0,0.2,0c0.1,0,0.1,0,0.2-0.1c0.1,0,0.1-0.1,0.1-0.1c0,0,0-0.1,0-0.2
			c0,0,0-0.1,0-0.1s0-0.1,0-0.1c0,0,0,0-0.1-0.1c0,0,0,0-0.1-0.1c0,0,0-0.1,0-0.1c0,0,0-0.1,0-0.1c0,0,0-0.1,0-0.1
			c0,0,0-0.1,0.1-0.1c0,0,0.1-0.1,0.1-0.1c0,0,0.1,0,0.1,0c0.1,0,0.1,0,0.2,0c0.1,0,0.1,0.1,0.1,0.1c0,0.1,0.1,0.1,0.1,0.2
			c0,0.1,0,0.1,0,0.2c0,0.1,0,0.3-0.1,0.4c0,0.1-0.1,0.2-0.2,0.3c-0.1,0.1-0.2,0.2-0.4,0.2c-0.1,0.1-0.3,0.1-0.5,0.1V94.5z"/>
		<path fill="#231F20" d="M132.4,91.9V94c0,0,0,0,0,0H132c0,0,0,0,0,0v-0.2h0c-0.2,0.2-0.4,0.3-0.6,0.3c-0.3,0-0.5-0.2-0.7-0.5
			c0-0.1-0.1-0.2-0.1-0.4c0-0.7,0.3-1.1,0.9-1.3c0,0,0.1,0,0.3,0c0.1,0,0.1,0,0.2,0H132.4z M131,93.2c0,0.3,0.2,0.5,0.4,0.5h0
			c0.1,0,0.3-0.1,0.5-0.4v-0.9c0,0,0,0-0.1,0h-0.2c-0.3,0-0.5,0.2-0.6,0.7L131,93.2z"/>
		<path fill="#231F20" d="M132.7,95v-0.4h2.4V95H132.7z"/>
		<path fill="#231F20" d="M137.2,91.9V94c0,0,0,0,0,0h-0.4c0,0,0,0,0,0v-0.2h0c-0.2,0.2-0.4,0.3-0.6,0.3c-0.3,0-0.5-0.2-0.7-0.5
			c0-0.1-0.1-0.2-0.1-0.4c0-0.7,0.3-1.1,0.9-1.3c0,0,0.1,0,0.3,0c0.1,0,0.1,0,0.2,0H137.2z M135.8,93.2c0,0.3,0.2,0.5,0.4,0.5h0
			c0.1,0,0.3-0.1,0.5-0.4v-0.9c0,0,0,0-0.1,0h-0.2c-0.3,0-0.5,0.2-0.6,0.7L135.8,93.2z"/>
		<path fill="#231F20" d="M159.9,94.5h-0.5l1.5-3.5h0.5L159.9,94.5z"/>
		<path fill="#231F20" d="M162.4,91l1.5,3.5h-0.5l-1.5-3.5H162.4z"/>
		<path fill="#231F20" d="M165.3,91.9c0.1,0,0.1,0,0.2,0c0,0,0.1,0,0.1,0.1s0.1,0.1,0.1,0.1c0,0,0,0.1,0,0.2c0,0.1,0,0.1,0,0.2
			c0,0,0,0.1-0.1,0.1c0,0-0.1,0.1-0.1,0.1c0,0-0.1,0-0.2,0s-0.1,0-0.2,0c0,0-0.1,0-0.1-0.1c0,0-0.1-0.1-0.1-0.1c0,0,0-0.1,0-0.2
			c0-0.1,0-0.1,0-0.2c0,0,0-0.1,0.1-0.1c0,0,0.1-0.1,0.1-0.1C165.2,91.9,165.2,91.9,165.3,91.9z M165.3,93.4c0.1,0,0.1,0,0.2,0
			c0,0,0.1,0,0.1,0.1c0,0,0.1,0.1,0.1,0.1c0,0,0,0.1,0,0.2c0,0.1,0,0.1,0,0.2c0,0,0,0.1-0.1,0.1c0,0-0.1,0.1-0.1,0.1
			c0,0-0.1,0-0.2,0s-0.1,0-0.2,0c0,0-0.1,0-0.1-0.1c0,0-0.1-0.1-0.1-0.1c0,0,0-0.1,0-0.2c0-0.1,0-0.1,0-0.2c0,0,0-0.1,0.1-0.1
			c0,0,0.1-0.1,0.1-0.1C165.2,93.4,165.2,93.4,165.3,93.4z"/>
		<path fill="#231F20" d="M167.7,91.9c0.1,0,0.1,0,0.2,0c0,0,0.1,0,0.1,0.1c0,0,0.1,0.1,0.1,0.1c0,0,0,0.1,0,0.2c0,0.1,0,0.1,0,0.2
			c0,0,0,0.1-0.1,0.1c0,0-0.1,0.1-0.1,0.1s-0.1,0-0.2,0s-0.1,0-0.2,0c0,0-0.1,0-0.1-0.1c0,0-0.1-0.1-0.1-0.1c0,0,0-0.1,0-0.2
			c0-0.1,0-0.1,0-0.2c0,0,0-0.1,0.1-0.1c0,0,0.1-0.1,0.1-0.1C167.6,91.9,167.7,91.9,167.7,91.9z M167.7,93.4c0.1,0,0.1,0,0.2,0
			s0.1,0,0.1,0.1c0,0,0.1,0.1,0.1,0.1c0,0,0,0.1,0,0.2c0,0.1,0,0.1,0,0.2c0,0,0,0.1-0.1,0.1c0,0-0.1,0.1-0.1,0.1c0,0-0.1,0-0.2,0
			s-0.1,0-0.2,0c0,0-0.1,0-0.1-0.1c0,0-0.1-0.1-0.1-0.1c0,0,0-0.1,0-0.2c0-0.1,0-0.1,0-0.2c0,0,0-0.1,0.1-0.1c0,0,0.1-0.1,0.1-0.1
			C167.6,93.4,167.7,93.4,167.7,93.4z"/>
		<path fill="#231F20" d="M170.1,91.9c0.1,0,0.1,0,0.2,0c0,0,0.1,0,0.1,0.1c0,0,0.1,0.1,0.1,0.1c0,0,0,0.1,0,0.2c0,0.1,0,0.1,0,0.2
			c0,0,0,0.1-0.1,0.1c0,0-0.1,0.1-0.1,0.1s-0.1,0-0.2,0s-0.1,0-0.2,0c0,0-0.1,0-0.1-0.1c0,0-0.1-0.1-0.1-0.1c0,0,0-0.1,0-0.2
			c0-0.1,0-0.1,0-0.2c0,0,0-0.1,0.1-0.1c0,0,0.1-0.1,0.1-0.1C170,91.9,170.1,91.9,170.1,91.9z M170.1,93.4c0.1,0,0.1,0,0.2,0
			s0.1,0,0.1,0.1c0,0,0.1,0.1,0.1,0.1c0,0,0,0.1,0,0.2c0,0.1,0,0.1,0,0.2c0,0,0,0.1-0.1,0.1c0,0-0.1,0.1-0.1,0.1c0,0-0.1,0-0.2,0
			s-0.1,0-0.2,0c0,0-0.1,0-0.1-0.1c0,0-0.1-0.1-0.1-0.1c0,0,0-0.1,0-0.2c0-0.1,0-0.1,0-0.2c0,0,0-0.1,0.1-0.1c0,0,0.1-0.1,0.1-0.1
			C170,93.4,170.1,93.4,170.1,93.4z"/>
		<path fill="#231F20" d="M172.6,91.9c0.1,0,0.1,0,0.2,0c0,0,0.1,0,0.1,0.1s0.1,0.1,0.1,0.1c0,0,0,0.1,0,0.2c0,0.1,0,0.1,0,0.2
			c0,0,0,0.1-0.1,0.1c0,0-0.1,0.1-0.1,0.1c0,0-0.1,0-0.2,0c-0.1,0-0.1,0-0.2,0c0,0-0.1,0-0.1-0.1c0,0-0.1-0.1-0.1-0.1
			c0,0,0-0.1,0-0.2c0-0.1,0-0.1,0-0.2c0,0,0-0.1,0.1-0.1c0,0,0.1-0.1,0.1-0.1C172.4,91.9,172.5,91.9,172.6,91.9z M172.6,93.4
			c0.1,0,0.1,0,0.2,0c0,0,0.1,0,0.1,0.1c0,0,0.1,0.1,0.1,0.1c0,0,0,0.1,0,0.2c0,0.1,0,0.1,0,0.2c0,0,0,0.1-0.1,0.1
			c0,0-0.1,0.1-0.1,0.1c0,0-0.1,0-0.2,0c-0.1,0-0.1,0-0.2,0c0,0-0.1,0-0.1-0.1c0,0-0.1-0.1-0.1-0.1c0,0,0-0.1,0-0.2
			c0-0.1,0-0.1,0-0.2c0,0,0-0.1,0.1-0.1c0,0,0.1-0.1,0.1-0.1C172.4,93.4,172.5,93.4,172.6,93.4z"/>
		<path fill="#231F20" d="M174.4,94.5h-0.5l1.5-3.5h0.5L174.4,94.5z"/>
		<path fill="#231F20" d="M176.9,91l1.5,3.5h-0.5l-1.5-3.5H176.9z"/>
		<path fill="#231F20" d="M127.2,100.2c-0.3,0-0.5-0.1-0.7-0.2c-0.1-0.1-0.2-0.4-0.2-0.7v-0.5c0-0.1,0-0.3-0.1-0.3
			c-0.1-0.1-0.2-0.1-0.3-0.1h-0.1v-0.4h0.1c0.1,0,0.1,0,0.2,0c0.1,0,0.1,0,0.1-0.1c0,0,0.1-0.1,0.1-0.1c0-0.1,0-0.1,0-0.2v-0.4
			c0-0.1,0-0.3,0.1-0.4c0-0.1,0.1-0.2,0.2-0.3c0.1-0.1,0.2-0.1,0.3-0.2c0.1,0,0.2-0.1,0.4-0.1h0.2v0.4h-0.1c-0.1,0-0.1,0-0.2,0
			c-0.1,0-0.1,0-0.1,0.1c0,0-0.1,0.1-0.1,0.1c0,0.1,0,0.1,0,0.2v0.4c0,0.1,0,0.2,0,0.3c0,0.1,0,0.1-0.1,0.2c0,0.1-0.1,0.1-0.1,0.1
			c-0.1,0-0.1,0-0.2,0.1c0.2,0,0.3,0.1,0.3,0.2c0.1,0.1,0.1,0.3,0.1,0.5v0.5c0,0.1,0,0.2,0,0.2c0,0.1,0.1,0.1,0.1,0.1
			s0.1,0.1,0.1,0.1c0.1,0,0.1,0,0.2,0h0.1v0.4H127.2z"/>
		<path fill="#231F20" d="M128.5,99.8H128l1.5-3.5h0.5L128.5,99.8z"/>
		<path fill="#231F20" d="M134.1,97.4h-0.4l-0.1-1.1h0.6L134.1,97.4z"/>
		<path fill="#231F20" d="M136.5,97.4h-0.4l-0.1-1.1h0.6L136.5,97.4z"/>
		<path fill="#231F20" d="M138.3,96.3l1.5,3.5h-0.5l-1.5-3.5H138.3z"/>
		<path fill="#231F20" d="M139.9,100.2v-0.4h2.4v0.4H139.9z"/>
		<path fill="#231F20" d="M157.5,99.8H157l1.5-3.5h0.5L157.5,99.8z"/>
		<path fill="#231F20" d="M160,96.3l1.5,3.5H161l-1.5-3.5H160z"/>
		<path fill="#231F20" d="M164.9,96.3l1.5,3.5h-0.5l-1.5-3.5H164.9z"/>
		<path fill="#231F20" d="M167.7,97.2c0.1,0,0.1,0,0.2,0c0,0,0.1,0,0.1,0.1c0,0,0.1,0.1,0.1,0.1c0,0,0,0.1,0,0.2c0,0.1,0,0.1,0,0.2
			c0,0,0,0.1-0.1,0.1c0,0-0.1,0.1-0.1,0.1c0,0-0.1,0-0.2,0s-0.1,0-0.2,0c0,0-0.1,0-0.1-0.1c0,0-0.1-0.1-0.1-0.1c0,0,0-0.1,0-0.2
			c0-0.1,0-0.1,0-0.2c0,0,0-0.1,0.1-0.1c0,0,0.1-0.1,0.1-0.1C167.6,97.2,167.7,97.2,167.7,97.2z M167.7,98.6c0.1,0,0.1,0,0.2,0
			c0,0,0.1,0,0.1,0.1c0,0,0.1,0.1,0.1,0.1c0,0,0,0.1,0,0.2c0,0.1,0,0.1,0,0.2c0,0,0,0.1-0.1,0.1c0,0-0.1,0.1-0.1,0.1
			c0,0-0.1,0-0.2,0s-0.1,0-0.2,0c0,0-0.1,0-0.1-0.1c0,0-0.1-0.1-0.1-0.1c0,0,0-0.1,0-0.2c0-0.1,0-0.1,0-0.2c0,0,0-0.1,0.1-0.1
			c0,0,0.1-0.1,0.1-0.1C167.6,98.6,167.7,98.6,167.7,98.6z"/>
		<path fill="#231F20" d="M170.1,97.2c0.1,0,0.1,0,0.2,0c0,0,0.1,0,0.1,0.1c0,0,0.1,0.1,0.1,0.1c0,0,0,0.1,0,0.2c0,0.1,0,0.1,0,0.2
			c0,0,0,0.1-0.1,0.1c0,0-0.1,0.1-0.1,0.1c0,0-0.1,0-0.2,0s-0.1,0-0.2,0c0,0-0.1,0-0.1-0.1c0,0-0.1-0.1-0.1-0.1c0,0,0-0.1,0-0.2
			c0-0.1,0-0.1,0-0.2c0,0,0-0.1,0.1-0.1c0,0,0.1-0.1,0.1-0.1C170,97.2,170.1,97.2,170.1,97.2z M170.1,98.6c0.1,0,0.1,0,0.2,0
			c0,0,0.1,0,0.1,0.1c0,0,0.1,0.1,0.1,0.1c0,0,0,0.1,0,0.2c0,0.1,0,0.1,0,0.2c0,0,0,0.1-0.1,0.1c0,0-0.1,0.1-0.1,0.1
			c0,0-0.1,0-0.2,0s-0.1,0-0.2,0c0,0-0.1,0-0.1-0.1c0,0-0.1-0.1-0.1-0.1c0,0,0-0.1,0-0.2c0-0.1,0-0.1,0-0.2c0,0,0-0.1,0.1-0.1
			c0,0,0.1-0.1,0.1-0.1C170,98.6,170.1,98.6,170.1,98.6z"/>
		<path fill="#231F20" d="M172,99.8h-0.5l1.5-3.5h0.5L172,99.8z"/>
		<path fill="#231F20" d="M174.5,96.3l1.5,3.5h-0.5l-1.5-3.5H174.5z"/>
		<path fill="#231F20" d="M179.4,96.3l1.5,3.5h-0.5l-1.5-3.5H179.4z"/>
		<path fill="#231F20" d="M127.2,105.5c-0.3,0-0.5-0.1-0.7-0.2c-0.1-0.1-0.2-0.4-0.2-0.7V104c0-0.1,0-0.3-0.1-0.3
			c-0.1-0.1-0.2-0.1-0.3-0.1h-0.1v-0.4h0.1c0.1,0,0.1,0,0.2,0c0.1,0,0.1,0,0.1-0.1c0,0,0.1-0.1,0.1-0.1c0-0.1,0-0.1,0-0.2v-0.4
			c0-0.1,0-0.3,0.1-0.4c0-0.1,0.1-0.2,0.2-0.3c0.1-0.1,0.2-0.1,0.3-0.2c0.1,0,0.2-0.1,0.4-0.1h0.2v0.4h-0.1c-0.1,0-0.1,0-0.2,0
			c-0.1,0-0.1,0-0.1,0.1c0,0-0.1,0.1-0.1,0.1c0,0.1,0,0.1,0,0.2v0.4c0,0.1,0,0.2,0,0.3c0,0.1,0,0.1-0.1,0.2c0,0.1-0.1,0.1-0.1,0.1
			c-0.1,0-0.1,0-0.2,0.1c0.2,0,0.3,0.1,0.3,0.2c0.1,0.1,0.1,0.3,0.1,0.5v0.5c0,0.1,0,0.2,0,0.2c0,0.1,0.1,0.1,0.1,0.1
			s0.1,0.1,0.1,0.1c0.1,0,0.1,0,0.2,0h0.1v0.4H127.2z"/>
		<path fill="#231F20" d="M128.6,101.6l1.5,3.5h-0.5l-1.5-3.5H128.6z"/>
		<path fill="#231F20" d="M133.1,105c0.1,0,0.2,0,0.2,0c0.1,0,0.1,0,0.2-0.1c0.1,0,0.1-0.1,0.1-0.1c0,0,0-0.1,0-0.2c0,0,0-0.1,0-0.1
			s0-0.1,0-0.1c0,0,0,0-0.1-0.1c0,0,0,0-0.1-0.1c0,0,0-0.1,0-0.1c0,0,0-0.1,0-0.1c0,0,0-0.1,0-0.1c0,0,0-0.1,0.1-0.1
			c0,0,0.1-0.1,0.1-0.1c0,0,0.1,0,0.1,0c0.1,0,0.1,0,0.2,0c0.1,0,0.1,0.1,0.1,0.1c0,0.1,0.1,0.1,0.1,0.2c0,0.1,0,0.1,0,0.2
			c0,0.1,0,0.3-0.1,0.4c0,0.1-0.1,0.2-0.2,0.3c-0.1,0.1-0.2,0.2-0.4,0.2c-0.1,0.1-0.3,0.1-0.5,0.1V105z"/>
		<path fill="#231F20" d="M135.1,105.5v-0.4h2.4v0.4H135.1z"/>
		<path fill="#231F20" d="M139.8,103.5c0,0.2,0,0.3-0.1,0.5c0,0.1-0.1,0.3-0.2,0.4c-0.1,0.1-0.2,0.2-0.3,0.2
			c-0.1,0.1-0.3,0.1-0.5,0.1c-0.2,0-0.3,0-0.4-0.1c-0.1,0-0.2-0.1-0.3-0.2c-0.1-0.1-0.2-0.2-0.2-0.4c0-0.1-0.1-0.3-0.1-0.5
			c0-0.2,0-0.3,0.1-0.5c0-0.1,0.1-0.3,0.2-0.4s0.2-0.2,0.3-0.2c0.1-0.1,0.3-0.1,0.5-0.1c0.2,0,0.3,0,0.4,0.1s0.2,0.1,0.3,0.2
			c0.1,0.1,0.2,0.2,0.2,0.4C139.8,103.2,139.8,103.3,139.8,103.5z M139.2,103.5c0-0.2,0-0.4-0.1-0.5c-0.1-0.1-0.2-0.2-0.4-0.2
			c-0.1,0-0.2,0-0.2,0.1c-0.1,0-0.1,0.1-0.2,0.1c0,0.1-0.1,0.1-0.1,0.2c0,0.1,0,0.2,0,0.3c0,0.2,0,0.4,0.1,0.5
			c0.1,0.1,0.2,0.2,0.4,0.2c0.1,0,0.2,0,0.2-0.1c0.1,0,0.1-0.1,0.2-0.1c0-0.1,0.1-0.1,0.1-0.2C139.2,103.7,139.2,103.6,139.2,103.5z
			"/>
		<path fill="#231F20" d="M142.2,103.5c0,0.2,0,0.3-0.1,0.5c0,0.1-0.1,0.3-0.2,0.4c-0.1,0.1-0.2,0.2-0.3,0.2
			c-0.1,0.1-0.3,0.1-0.5,0.1c-0.2,0-0.3,0-0.4-0.1c-0.1,0-0.2-0.1-0.3-0.2c-0.1-0.1-0.2-0.2-0.2-0.4c0-0.1-0.1-0.3-0.1-0.5
			c0-0.2,0-0.3,0.1-0.5c0-0.1,0.1-0.3,0.2-0.4s0.2-0.2,0.3-0.2c0.1-0.1,0.3-0.1,0.5-0.1c0.2,0,0.3,0,0.4,0.1s0.2,0.1,0.3,0.2
			c0.1,0.1,0.2,0.2,0.2,0.4C142.2,103.2,142.2,103.3,142.2,103.5z M141.7,103.5c0-0.2,0-0.4-0.1-0.5c-0.1-0.1-0.2-0.2-0.4-0.2
			c-0.1,0-0.2,0-0.2,0.1c-0.1,0-0.1,0.1-0.2,0.1c0,0.1-0.1,0.1-0.1,0.2c0,0.1,0,0.2,0,0.3c0,0.2,0,0.4,0.1,0.5
			c0.1,0.1,0.2,0.2,0.4,0.2c0.1,0,0.2,0,0.2-0.1c0.1,0,0.1-0.1,0.2-0.1c0-0.1,0.1-0.1,0.1-0.2C141.6,103.7,141.7,103.6,141.7,103.5z
			"/>
		<path fill="#231F20" d="M143.4,101.6c0.6,0.5,1,1.1,1,1.8v0.2c0,0.3-0.1,0.7-0.2,1c-0.3,0.5-0.6,0.8-1,0.9l-0.2-0.3
			c0,0,0,0,0.1-0.1c0.6-0.4,1-0.9,1-1.7c0-0.8-0.4-1.4-1.1-1.7l0.2-0.3C143.1,101.5,143.2,101.5,143.4,101.6z"/>
		<path fill="#231F20" d="M155.1,105.1h-0.5l1.5-3.5h0.5L155.1,105.1z"/>
		<path fill="#231F20" d="M157.6,101.6l1.5,3.5h-0.5l-1.5-3.5H157.6z"/>
		<path fill="#231F20" d="M162.4,101.6l1.5,3.5h-0.5l-1.5-3.5H162.4z"/>
		<path fill="#231F20" d="M167.3,101.6l1.5,3.5h-0.5l-1.5-3.5H167.3z"/>
		<path fill="#231F20" d="M169.6,105.1h-0.5l1.5-3.5h0.5L169.6,105.1z"/>
		<path fill="#231F20" d="M172.1,101.6l1.5,3.5h-0.5l-1.5-3.5H172.1z"/>
		<path fill="#231F20" d="M176.9,101.6l1.5,3.5h-0.5l-1.5-3.5H176.9z"/>
		<path fill="#231F20" d="M181.8,101.6l1.5,3.5h-0.5l-1.5-3.5H181.8z"/>
		<path fill="#231F20" d="M127.2,110.7c-0.6,0-0.9-0.3-0.9-0.9v-0.5c0-0.3-0.1-0.4-0.4-0.4h-0.1v-0.4h0.1c0.4,0,0.5-0.4,0.4-0.8
			c0-0.6,0.3-0.9,0.9-0.9h0.2v0.4h-0.1c-0.3,0-0.5,0.2-0.5,0.5c0.1,0.4,0,0.9-0.5,1c0.3,0.1,0.5,0.3,0.5,0.6v0.5
			c0,0.3,0.1,0.5,0.5,0.5h0.1v0.4H127.2z"/>
		<path fill="#231F20" d="M128.5,110.4H128l1.5-3.5h0.5L128.5,110.4z"/>
		<path fill="#231F20" d="M136.8,106.8l0.2,0.3c-0.7,0.4-1.1,0.9-1.1,1.7c0,0.8,0.3,1.3,1,1.7c0.1,0,0.1,0,0.1,0.1l-0.2,0.3
			c-0.4-0.2-0.8-0.5-1-0.9c-0.2-0.4-0.2-0.7-0.2-1v-0.2c0-0.7,0.3-1.3,1-1.8C136.7,106.8,136.8,106.8,136.8,106.8z"/>
		<path fill="#231F20" d="M137.5,110.8v-0.4h2.4v0.4H137.5z"/>
		<path fill="#231F20" d="M141.7,108.5l-0.6-1l-0.6,1h-0.4l0.8-1.4h0.4l0.8,1.4H141.7z"/>
		<path fill="#231F20" d="M142.4,110.8v-0.4h2.4v0.4H142.4z"/>
		<path fill="#231F20" d="M144.8,110.8v-0.4h2.4v0.4H144.8z"/>
		<path fill="#231F20" d="M147.2,110.8v-0.4h2.4v0.4H147.2z"/>
		<path fill="#231F20" d="M149.6,110.8v-0.4h2.4v0.4H149.6z"/>
		<path fill="#231F20" d="M152.7,110.4h-0.5l1.5-3.5h0.5L152.7,110.4z"/>
		<path fill="#231F20" d="M160,106.9l1.5,3.5H161l-1.5-3.5H160z"/>
		<path fill="#231F20" d="M164.9,106.9l1.5,3.5h-0.5l-1.5-3.5H164.9z"/>
		<path fill="#231F20" d="M169.7,106.9l1.5,3.5h-0.5l-1.5-3.5H169.7z"/>
		<path fill="#231F20" d="M174.5,106.9l1.5,3.5h-0.5l-1.5-3.5H174.5z"/>
		<path fill="#231F20" d="M179.4,106.9l1.5,3.5h-0.5l-1.5-3.5H179.4z"/>
		<path fill="#231F20" d="M184.2,106.9l1.5,3.5h-0.5l-1.5-3.5H184.2z"/>
		<path fill="#231F20" d="M102.5,114.4c0.1,0,0.1,0,0.2,0c0.1,0,0.1,0.1,0.1,0.1c0,0,0.1,0.1,0.1,0.1c0,0.1,0,0.1,0,0.2
			c0,0.1,0,0.1,0,0.2c0,0.1-0.1,0.1-0.1,0.1c0,0-0.1,0.1-0.1,0.1c-0.1,0-0.1,0-0.2,0c-0.1,0-0.1,0-0.2,0c0,0-0.1-0.1-0.1-0.1
			c0,0-0.1-0.1-0.1-0.1c0-0.1,0-0.1,0-0.2c0-0.1,0-0.1,0-0.2c0-0.1,0.1-0.1,0.1-0.1c0,0,0.1-0.1,0.1-0.1
			C102.4,114.4,102.4,114.4,102.5,114.4z"/>
		<path fill="#231F20" d="M104,113.8v-0.4h1.8v0.4H104z M104,114.6v-0.4h1.8v0.4H104z"/>
		<path fill="#231F20" d="M107.3,114.4c0.1,0,0.1,0,0.2,0c0.1,0,0.1,0.1,0.1,0.1c0,0,0.1,0.1,0.1,0.1c0,0.1,0,0.1,0,0.2
			c0,0.1,0,0.1,0,0.2c0,0.1-0.1,0.1-0.1,0.1c0,0-0.1,0.1-0.1,0.1c-0.1,0-0.1,0-0.2,0c-0.1,0-0.1,0-0.2,0c0,0-0.1-0.1-0.1-0.1
			c0,0-0.1-0.1-0.1-0.1c0-0.1,0-0.1,0-0.2c0-0.1,0-0.1,0-0.2c0-0.1,0.1-0.1,0.1-0.1c0,0,0.1-0.1,0.1-0.1
			C107.2,114.4,107.3,114.4,107.3,114.4z"/>
		<path fill="#231F20" d="M124.8,116c-0.3,0-0.5-0.1-0.7-0.2c-0.1-0.1-0.2-0.4-0.2-0.7v-0.5c0-0.1,0-0.3-0.1-0.3
			c-0.1-0.1-0.2-0.1-0.3-0.1h-0.1v-0.4h0.1c0.1,0,0.1,0,0.2,0c0.1,0,0.1,0,0.1-0.1c0,0,0.1-0.1,0.1-0.1s0-0.1,0-0.2v-0.4
			c0-0.1,0-0.3,0.1-0.4c0-0.1,0.1-0.2,0.2-0.3c0.1-0.1,0.2-0.1,0.3-0.2c0.1,0,0.2-0.1,0.4-0.1h0.2v0.4h-0.1c-0.1,0-0.1,0-0.2,0
			c-0.1,0-0.1,0-0.1,0.1c0,0-0.1,0.1-0.1,0.1c0,0.1,0,0.1,0,0.2v0.4c0,0.1,0,0.2,0,0.3c0,0.1,0,0.1-0.1,0.2c0,0.1-0.1,0.1-0.1,0.1
			c-0.1,0-0.1,0-0.2,0.1c0.2,0,0.3,0.1,0.3,0.2c0.1,0.1,0.1,0.3,0.1,0.5v0.5c0,0.1,0,0.2,0,0.2c0,0.1,0.1,0.1,0.1,0.1
			c0,0,0.1,0.1,0.1,0.1c0.1,0,0.1,0,0.2,0h0.1v0.4H124.8z"/>
		<path fill="#231F20" d="M126.1,115.6h-0.5l1.5-3.5h0.5L126.1,115.6z"/>
		<path fill="#231F20" d="M131,112.1l1.5,3.5H132l-1.5-3.5H131z"/>
		<path fill="#231F20" d="M132.7,116v-0.4h2.4v0.4H132.7z"/>
		<path fill="#231F20" d="M135.1,116v-0.4h2.4v0.4H135.1z"/>
		<path fill="#231F20" d="M137.5,116v-0.4h2.4v0.4H137.5z"/>
		<path fill="#231F20" d="M141,112.2c0.6,0.5,1,1.1,1,1.8v0.2c0,0.3-0.1,0.7-0.2,1c-0.3,0.5-0.6,0.8-1,0.9l-0.2-0.3c0,0,0,0,0.1-0.1
			c0.6-0.4,1-0.9,1-1.7c0-0.8-0.4-1.4-1.1-1.7l0.2-0.3C140.7,112,140.8,112.1,141,112.2z"/>
		<path fill="#231F20" d="M143.4,112.2c0.6,0.5,1,1.1,1,1.8v0.2c0,0.3-0.1,0.7-0.2,1c-0.3,0.5-0.6,0.8-1,0.9l-0.2-0.3
			c0,0,0,0,0.1-0.1c0.6-0.4,1-0.9,1-1.7c0-0.8-0.4-1.4-1.1-1.7l0.2-0.3C143.1,112,143.2,112.1,143.4,112.2z"/>
		<path fill="#231F20" d="M145.8,112.2c0.6,0.5,1,1.1,1,1.8v0.2c0,0.3-0.1,0.7-0.2,1c-0.3,0.5-0.6,0.8-1,0.9l-0.2-0.3
			c0,0,0,0,0.1-0.1c0.6-0.4,1-0.9,1-1.7c0-0.8-0.4-1.4-1.1-1.7l0.2-0.3C145.5,112,145.6,112.1,145.8,112.2z"/>
		<path fill="#231F20" d="M148.6,114h-0.4l0.1-0.7l-0.5,0.4l-0.2-0.4l0.6-0.3l-0.6-0.3l0.2-0.4l0.5,0.4l-0.1-0.7h0.4l-0.1,0.7
			l0.5-0.4l0.2,0.4l-0.6,0.3l0.6,0.3l-0.2,0.4l-0.5-0.4L148.6,114z"/>
		<path fill="#231F20" d="M150.7,112.2c0.6,0.5,1,1.1,1,1.8v0.2c0,0.3-0.1,0.7-0.2,1c-0.3,0.5-0.6,0.8-1,0.9l-0.2-0.3
			c0,0,0,0,0.1-0.1c0.6-0.4,1-0.9,1-1.7c0-0.8-0.4-1.4-1.1-1.7l0.2-0.3C150.3,112,150.5,112.1,150.7,112.2z"/>
		<path fill="#231F20" d="M162.4,112.1l1.5,3.5h-0.5l-1.5-3.5H162.4z"/>
		<path fill="#231F20" d="M167.3,112.1l1.5,3.5h-0.5l-1.5-3.5H167.3z"/>
		<path fill="#231F20" d="M172.1,112.1l1.5,3.5h-0.5l-1.5-3.5H172.1z"/>
		<path fill="#231F20" d="M176.9,112.1l1.5,3.5h-0.5l-1.5-3.5H176.9z"/>
		<path fill="#231F20" d="M181.8,112.1l1.5,3.5h-0.5l-1.5-3.5H181.8z"/>
		<path fill="#231F20" d="M184.1,115.6h-0.5l1.5-3.5h0.5L184.1,115.6z"/>
		<path fill="#231F20" d="M100.6,117.3l0.2,0.3c-0.7,0.4-1.1,0.9-1.1,1.7c0,0.8,0.3,1.3,1,1.7c0.1,0,0.1,0,0.1,0.1l-0.2,0.3
			c-0.4-0.2-0.8-0.5-1-0.9c-0.2-0.4-0.2-0.7-0.2-1v-0.2c0-0.7,0.3-1.3,1-1.8C100.5,117.4,100.6,117.3,100.6,117.3z"/>
		<path fill="#231F20" d="M102.5,119.7c0.1,0,0.1,0,0.2,0s0.1,0.1,0.1,0.1c0,0,0.1,0.1,0.1,0.1c0,0.1,0,0.1,0,0.2c0,0.1,0,0.1,0,0.2
			c0,0.1-0.1,0.1-0.1,0.1c0,0-0.1,0.1-0.1,0.1c-0.1,0-0.1,0-0.2,0c-0.1,0-0.1,0-0.2,0c0,0-0.1-0.1-0.1-0.1c0,0-0.1-0.1-0.1-0.1
			c0-0.1,0-0.1,0-0.2c0-0.1,0-0.1,0-0.2c0-0.1,0.1-0.1,0.1-0.1c0,0,0.1-0.1,0.1-0.1S102.4,119.7,102.5,119.7z"/>
		<path fill="#231F20" d="M104,119.1v-0.4h1.8v0.4H104z M104,119.9v-0.4h1.8v0.4H104z"/>
		<path fill="#231F20" d="M107.3,119.7c0.1,0,0.1,0,0.2,0c0.1,0,0.1,0.1,0.1,0.1c0,0,0.1,0.1,0.1,0.1c0,0.1,0,0.1,0,0.2
			c0,0.1,0,0.1,0,0.2c0,0.1-0.1,0.1-0.1,0.1c0,0-0.1,0.1-0.1,0.1c-0.1,0-0.1,0-0.2,0c-0.1,0-0.1,0-0.2,0c0,0-0.1-0.1-0.1-0.1
			c0,0-0.1-0.1-0.1-0.1c0-0.1,0-0.1,0-0.2c0-0.1,0-0.1,0-0.2c0-0.1,0.1-0.1,0.1-0.1c0,0,0.1-0.1,0.1-0.1S107.3,119.7,107.3,119.7z"
			/>
		<path fill="#231F20" d="M109.4,117.4l0.6,0.6h-0.5l-0.7-0.6H109.4z"/>
		<path fill="#231F20" d="M111.7,117.4l1.5,3.5h-0.5l-1.5-3.5H111.7z"/>
		<path fill="#231F20" d="M122.4,121.3c-0.3,0-0.5-0.1-0.7-0.2c-0.1-0.1-0.2-0.4-0.2-0.7v-0.5c0-0.1,0-0.3-0.1-0.3s-0.2-0.1-0.3-0.1
			h-0.1V119h0.1c0.1,0,0.1,0,0.2,0s0.1,0,0.1-0.1c0,0,0.1-0.1,0.1-0.1c0-0.1,0-0.1,0-0.2v-0.4c0-0.1,0-0.3,0.1-0.4s0.1-0.2,0.2-0.3
			c0.1-0.1,0.2-0.1,0.3-0.2c0.1,0,0.2-0.1,0.4-0.1h0.2v0.4h-0.1c-0.1,0-0.1,0-0.2,0c-0.1,0-0.1,0-0.1,0.1c0,0-0.1,0.1-0.1,0.1
			c0,0.1,0,0.1,0,0.2v0.4c0,0.1,0,0.2,0,0.3c0,0.1,0,0.1-0.1,0.2c0,0.1-0.1,0.1-0.1,0.1c-0.1,0-0.1,0-0.2,0.1c0.2,0,0.3,0.1,0.3,0.2
			c0.1,0.1,0.1,0.3,0.1,0.5v0.5c0,0.1,0,0.2,0,0.2c0,0.1,0.1,0.1,0.1,0.1s0.1,0.1,0.1,0.1c0.1,0,0.1,0,0.2,0h0.1v0.4H122.4z"/>
		<path fill="#231F20" d="M123.7,120.9h-0.5l1.5-3.5h0.5L123.7,120.9z"/>
		<path fill="#231F20" d="M133.4,120.9h-0.5l1.5-3.5h0.5L133.4,120.9z"/>
		<path fill="#231F20" d="M135.4,119.1v-0.4h1.8v0.4H135.4z M135.4,119.9v-0.4h1.8v0.4H135.4z"/>
		<path fill="#231F20" d="M138,120.9c0.1,0,0.2,0,0.2,0c0.1,0,0.1,0,0.2-0.1c0.1,0,0.1-0.1,0.1-0.1c0,0,0-0.1,0-0.2c0,0,0-0.1,0-0.1
			c0,0,0-0.1,0-0.1c0,0,0,0-0.1-0.1c0,0,0,0-0.1-0.1c0,0,0-0.1,0-0.1c0,0,0-0.1,0-0.1c0,0,0-0.1,0-0.1c0,0,0-0.1,0.1-0.1
			c0,0,0.1-0.1,0.1-0.1c0,0,0.1,0,0.1,0c0.1,0,0.1,0,0.2,0c0.1,0,0.1,0.1,0.1,0.1c0,0.1,0.1,0.1,0.1,0.2c0,0.1,0,0.1,0,0.2
			c0,0.1,0,0.3-0.1,0.4c0,0.1-0.1,0.2-0.2,0.3c-0.1,0.1-0.2,0.2-0.4,0.2c-0.1,0.1-0.3,0.1-0.5,0.1V120.9z M138.7,118.2
			c0.1,0,0.1,0,0.2,0c0,0,0.1,0,0.1,0.1s0.1,0.1,0.1,0.1c0,0,0,0.1,0,0.2c0,0.1,0,0.1,0,0.2c0,0,0,0.1-0.1,0.1c0,0-0.1,0.1-0.1,0.1
			c0,0-0.1,0-0.2,0s-0.1,0-0.2,0c0,0-0.1,0-0.1-0.1c0,0-0.1-0.1-0.1-0.1s0-0.1,0-0.2c0-0.1,0-0.1,0-0.2c0,0,0-0.1,0.1-0.1
			c0,0,0.1-0.1,0.1-0.1C138.6,118.3,138.7,118.2,138.7,118.2z"/>
		<path fill="#231F20" d="M147.1,118.9c0,0.1,0,0.2,0,0.3c0,0.1-0.1,0.2-0.1,0.3s-0.1,0.1-0.2,0.2c-0.1,0-0.2,0.1-0.3,0.1
			c-0.1,0-0.2,0-0.2,0c-0.1,0-0.1-0.1-0.2-0.1s-0.1-0.1-0.1-0.1c0,0-0.1-0.1-0.1-0.1c0,0-0.1-0.1-0.1-0.1c0,0-0.1,0-0.1,0
			c-0.1,0-0.1,0-0.1,0.1c0,0.1-0.1,0.2-0.1,0.3h-0.4c0-0.1,0-0.2,0-0.3c0-0.1,0.1-0.2,0.1-0.3c0.1-0.1,0.1-0.1,0.2-0.2
			c0.1,0,0.2-0.1,0.3-0.1c0.1,0,0.2,0,0.2,0c0.1,0,0.1,0.1,0.2,0.1c0.1,0,0.1,0.1,0.1,0.1c0,0,0.1,0.1,0.1,0.1s0.1,0.1,0.1,0.1
			c0,0,0.1,0,0.1,0c0.1,0,0.1,0,0.1-0.1c0-0.1,0.1-0.2,0.1-0.3H147.1z"/>
		<path fill="#231F20" d="M147.8,120.9h-0.5l1.5-3.5h0.5L147.8,120.9z"/>
		<path fill="#231F20" d="M164.9,117.4l1.5,3.5h-0.5l-1.5-3.5H164.9z"/>
		<path fill="#231F20" d="M169.7,117.4l1.5,3.5h-0.5l-1.5-3.5H169.7z"/>
		<path fill="#231F20" d="M174.5,117.4l1.5,3.5h-0.5l-1.5-3.5H174.5z"/>
		<path fill="#231F20" d="M179.4,117.4l1.5,3.5h-0.5l-1.5-3.5H179.4z"/>
		<path fill="#231F20" d="M181.7,120.9h-0.5l1.5-3.5h0.5L181.7,120.9z"/>
		<path fill="#231F20" d="M109.3,122.7l1.5,3.5h-0.5l-1.5-3.5H109.3z"/>
		<path fill="#231F20" d="M114.3,122.7l0.6,0.6h-0.5l-0.7-0.6H114.3z"/>
		<path fill="#231F20" d="M116.5,122.7l1.5,3.5h-0.5l-1.5-3.5H116.5z"/>
		<path fill="#231F20" d="M120,126.6c-0.3,0-0.5-0.1-0.7-0.2c-0.1-0.1-0.2-0.4-0.2-0.7v-0.5c0-0.1,0-0.3-0.1-0.3
			c-0.1-0.1-0.2-0.1-0.3-0.1h-0.1v-0.4h0.1c0.1,0,0.1,0,0.2,0c0.1,0,0.1,0,0.1-0.1c0,0,0.1-0.1,0.1-0.1s0-0.1,0-0.2v-0.4
			c0-0.1,0-0.3,0.1-0.4c0-0.1,0.1-0.2,0.2-0.3c0.1-0.1,0.2-0.1,0.3-0.2c0.1,0,0.2-0.1,0.4-0.1h0.2v0.4H120c-0.1,0-0.1,0-0.2,0
			c-0.1,0-0.1,0-0.1,0.1c0,0-0.1,0.1-0.1,0.1c0,0.1,0,0.1,0,0.2v0.4c0,0.1,0,0.2,0,0.3c0,0.1,0,0.1-0.1,0.2s-0.1,0.1-0.1,0.1
			c-0.1,0-0.1,0-0.2,0.1c0.2,0,0.3,0.1,0.3,0.2c0.1,0.1,0.1,0.3,0.1,0.5v0.5c0,0.1,0,0.2,0,0.2c0,0.1,0.1,0.1,0.1,0.1
			c0,0,0.1,0.1,0.1,0.1c0.1,0,0.1,0,0.2,0h0.1v0.4H120z"/>
		<path fill="#231F20" d="M121.3,126.2h-0.5l1.5-3.5h0.5L121.3,126.2z"/>
		<path fill="#231F20" d="M124.8,122.6l0.2,0.3c-0.7,0.4-1.1,0.9-1.1,1.7c0,0.8,0.3,1.3,1,1.7c0.1,0,0.1,0,0.1,0.1l-0.2,0.3
			c-0.4-0.2-0.8-0.5-1-0.9c-0.2-0.4-0.2-0.7-0.2-1v-0.2c0-0.7,0.3-1.3,1-1.8C124.6,122.6,124.7,122.6,124.8,122.6z"/>
		<path fill="#231F20" d="M133.5,122.7l1.5,3.5h-0.5l-1.5-3.5H133.5z"/>
		<path fill="#231F20" d="M135.8,126.2h-0.5l1.5-3.5h0.5L135.8,126.2z"/>
		<path fill="#231F20" d="M138.3,122.7l1.5,3.5h-0.5l-1.5-3.5H138.3z"/>
		<path fill="#231F20" d="M145.4,126.2h-0.5l1.5-3.5h0.5L145.4,126.2z"/>
		<path fill="#231F20" d="M167.3,122.7l1.5,3.5h-0.5l-1.5-3.5H167.3z"/>
		<path fill="#231F20" d="M172.1,122.7l1.5,3.5h-0.5l-1.5-3.5H172.1z"/>
		<path fill="#231F20" d="M176.9,122.7l1.5,3.5h-0.5l-1.5-3.5H176.9z"/>
		<path fill="#231F20" d="M179.3,126.2h-0.5l1.5-3.5h0.5L179.3,126.2z"/>
		<path fill="#231F20" d="M111.7,128l1.5,3.5h-0.5l-1.5-3.5H111.7z"/>
		<path fill="#231F20" d="M119.1,128l0.6,0.6h-0.5l-0.7-0.6H119.1z"/>
		<path fill="#231F20" d="M121.8,130.2c0.1,0,0.1,0,0.2,0c0.1,0,0.1,0.1,0.1,0.1c0,0,0.1,0.1,0.1,0.1c0,0.1,0,0.1,0,0.2
			c0,0.1,0,0.1,0,0.2c0,0.1-0.1,0.1-0.1,0.1c0,0-0.1,0.1-0.1,0.1c-0.1,0-0.1,0-0.2,0c-0.1,0-0.1,0-0.2,0c0,0-0.1-0.1-0.1-0.1
			c0,0-0.1-0.1-0.1-0.1c0-0.1,0-0.1,0-0.2c0-0.1,0-0.1,0-0.2c0-0.1,0.1-0.1,0.1-0.1c0,0,0.1-0.1,0.1-0.1
			C121.7,130.2,121.7,130.2,121.8,130.2z"/>
		<path fill="#231F20" d="M126.3,128l0.6,0.6h-0.5l-0.7-0.6H126.3z"/>
		<path fill="#231F20" d="M128.6,128l1.5,3.5h-0.5l-1.5-3.5H128.6z"/>
		<path fill="#231F20" d="M136.2,128c0.6,0.5,1,1.1,1,1.8v0.2c0,0.3-0.1,0.7-0.2,1c-0.3,0.5-0.6,0.8-1,0.9l-0.2-0.3c0,0,0,0,0.1-0.1
			c0.6-0.4,1-0.9,1-1.7c0-0.8-0.4-1.4-1.1-1.7l0.2-0.3C135.8,127.8,136,127.9,136.2,128z"/>
		<path fill="#231F20" d="M141,128c0.6,0.5,1,1.1,1,1.8v0.2c0,0.3-0.1,0.7-0.2,1c-0.3,0.5-0.6,0.8-1,0.9l-0.2-0.3c0,0,0,0,0.1-0.1
			c0.6-0.4,1-0.9,1-1.7c0-0.8-0.4-1.4-1.1-1.7l0.2-0.3C140.7,127.8,140.8,127.9,141,128z"/>
		<path fill="#231F20" d="M169.7,128l1.5,3.5h-0.5l-1.5-3.5H169.7z"/>
		<path fill="#231F20" d="M174.5,128l1.5,3.5h-0.5L174,128H174.5z"/>
		<path fill="#231F20" d="M176.8,131.4h-0.5l1.5-3.5h0.5L176.8,131.4z"/>
		<path fill="#231F20" d="M114.1,133.2l1.5,3.5h-0.5l-1.5-3.5H114.1z"/>
		<path fill="#231F20" d="M126.1,136.7h-0.5l1.5-3.5h0.5L126.1,136.7z"/>
		<path fill="#231F20" d="M128.5,136.7H128l1.5-3.5h0.5L128.5,136.7z"/>
		<path fill="#231F20" d="M133.4,136.7h-0.5l1.5-3.5h0.5L133.4,136.7z"/>
		<path fill="#231F20" d="M135.1,137.1v-0.4h2.4v0.4H135.1z"/>
		<path fill="#231F20" d="M138.2,136.7h-0.5l1.5-3.5h0.5L138.2,136.7z"/>
		<path fill="#231F20" d="M139.9,137.1v-0.4h2.4v0.4H139.9z"/>
		<path fill="#231F20" d="M172.1,133.2l1.5,3.5h-0.5l-1.5-3.5H172.1z"/>
		<path fill="#231F20" d="M174.4,136.7h-0.5l1.5-3.5h0.5L174.4,136.7z"/>
		<path fill="#231F20" d="M117.2,139.6h-0.4l-0.1-1.1h0.6L117.2,139.6z"/>
		<path fill="#231F20" d="M118.5,140.1v-0.4h1.8v0.4H118.5z M118.5,141v-0.4h1.8v0.4H118.5z"/>
		<path fill="#231F20" d="M120.9,140.1v-0.4h1.8v0.4H120.9z M120.9,141v-0.4h1.8v0.4H120.9z"/>
		<path fill="#231F20" d="M124.5,139.6H124l-0.1-1.1h0.6L124.5,139.6z"/>
		<path fill="#231F20" d="M126.9,139.6h-0.4l-0.1-1.1h0.6L126.9,139.6z"/>
		<path fill="#231F20" d="M128.4,140.6v-0.5h1.3v0.5H128.4z"/>
		<path fill="#231F20" d="M130.8,140.6v-0.5h1.3v0.5H130.8z"/>
		<path fill="#231F20" d="M133.2,140.6v-0.5h1.3v0.5H133.2z"/>
		<path fill="#231F20" d="M136.2,138.5c0.6,0.5,1,1.1,1,1.8v0.2c0,0.3-0.1,0.7-0.2,1c-0.3,0.5-0.6,0.8-1,0.9l-0.2-0.3
			c0,0,0,0,0.1-0.1c0.6-0.4,1-0.9,1-1.7c0-0.8-0.4-1.4-1.1-1.7l0.2-0.3C135.8,138.4,136,138.4,136.2,138.5z"/>
		<path fill="#231F20" d="M138.6,138.5c0.6,0.5,1,1.1,1,1.8v0.2c0,0.3-0.1,0.7-0.2,1c-0.3,0.5-0.6,0.8-1,0.9l-0.2-0.3
			c0,0,0,0,0.1-0.1c0.6-0.4,1-0.9,1-1.7c0-0.8-0.4-1.4-1.1-1.7l0.2-0.3C138.3,138.4,138.4,138.4,138.6,138.5z"/>
		<path fill="#231F20" d="M141,138.5c0.6,0.5,1,1.1,1,1.8v0.2c0,0.3-0.1,0.7-0.2,1c-0.3,0.5-0.6,0.8-1,0.9l-0.2-0.3c0,0,0,0,0.1-0.1
			c0.6-0.4,1-0.9,1-1.7c0-0.8-0.4-1.4-1.1-1.7l0.2-0.3C140.7,138.4,140.8,138.4,141,138.5z"/>
		<path fill="#231F20" d="M143.4,138.5c0.6,0.5,1,1.1,1,1.8v0.2c0,0.3-0.1,0.7-0.2,1c-0.3,0.5-0.6,0.8-1,0.9l-0.2-0.3
			c0,0,0,0,0.1-0.1c0.6-0.4,1-0.9,1-1.7c0-0.8-0.4-1.4-1.1-1.7l0.2-0.3C143.1,138.4,143.2,138.4,143.4,138.5z"/>
		<g>
			<path fill="#231F20" d="M102.5,69.2L99.2,76h-1.7l-3.4-6.8v7.9h-2.8V64.6h3.8l3.2,6.9l3.2-6.9h3.7v12.5h-2.8V69.2z"/>
			<path fill="#231F20" d="M113.7,67v10.1h-2.8V67h-3.5v-2.4h9.9V67H113.7z"/>
			<path fill="#231F20" d="M125,74.6c1.4,0,2.5-0.5,3.4-1.6l1.8,1.8c-1.4,1.6-3.1,2.4-5,2.4c-1.9,0-3.5-0.6-4.7-1.8
				c-1.2-1.2-1.9-2.7-1.9-4.6s0.6-3.4,1.9-4.6c1.3-1.2,2.8-1.9,4.7-1.9c2,0,3.8,0.8,5.1,2.3l-1.7,2c-0.9-1.1-2-1.6-3.3-1.6
				c-1,0-1.9,0.3-2.7,1c-0.7,0.7-1.1,1.6-1.1,2.8s0.4,2.1,1.1,2.8C123.1,74.3,124,74.6,125,74.6z"/>
		</g>
		<path fill="none" stroke="#EC1E24" stroke-width="0.7087" stroke-miterlimit="10" d="M118.9,59.1C126.4,55.2,135,53,144,53
			c30.4,0,55,24.6,55,55s-24.6,55-55,55s-55-24.6-55-55c0-9.2,2.2-17.8,6.2-25.4"/>
	</g>
</g>
</svg>
